<svg xmlns="http://www.w3.org/2000/svg" version="1" width="240" height="120" viewBox="-3.2713125 -3.2713125 115.586385 55.586375"><path d="M98.118 13.155l-.18-.313c-.157-.274-.2-.317-.333-.365v-.008c.263-.03.42-.2.42-.434 0-.246-.157-.434-.49-.434h-.766v1.553h.31v-.637h.06c.138 0 .193.014.255.077.06.064.157.196.21.306l.126.255h.388zm-1.037-.884v-.425h.29c.21 0 .322.074.322.21 0 .11-.07.216-.286.216h-.325zm.35-1.07c.65 0 1.175.524 1.175 1.173 0 .648-.526 1.175-1.175 1.175-.65 0-1.172-.527-1.172-1.175 0-.65.522-1.173 1.172-1.173m0-.29c-.81 0-1.462.652-1.462 1.463 0 .808.652 1.46 1.462 1.46.81 0 1.46-.652 1.46-1.46 0-.81-.65-1.463-1.46-1.463M30.594 11.107h4.664l5.267 23.29H36.18l-1.537-4.692H31.29c-.46 1.416-.822 3.223-1.13 4.69h-4.995l5.43-23.288zm1.612 13.977h1.683L32.882 21.7M88.696 11.107h4.663l5.348 23.29h-4.425l-1.54-4.692h-3.35c-.46 1.416-.823 3.223-1.132 4.69h-4.993l5.43-23.288zm1.613 13.977h1.68l-1.005-3.464M81.06 11.11v23.284h-4.67V11.11h4.67zM69.228 11.104H74.1v4.68H69.31c-3.956.008-6.04 4.327-6.04 6.967 0 2.43 1.922 6.962 5.717 6.968h.326V23.41h4.79V34.4h-5.197c-6.596.006-10.328-6.954-10.328-11.65 0-5.13 4.058-11.652 10.653-11.646M51.584 11.104h4.793v4.68h-4.793c-3.793.008-6.04 4.337-6.04 6.927 0 2.48 2.034 7.002 5.797 7.008h.327V23.41h4.71V34.4H51.26c-6.667.006-10.33-6.954-10.33-11.65 0-5.34 4.28-11.652 10.654-11.646M19.194 11.104h4.832v4.68h-4.832c-4.058.008-5.96 4.528-5.96 7.008 0 2.378 1.932 6.92 5.717 6.925h.328V23.41h4.77v10.986h-5.18c-6.595.01-10.327-6.94-10.327-11.685 0-5.078 4.068-11.613 10.654-11.606"/></svg>