<svg xmlns="http://www.w3.org/2000/svg" version="1" width="1001.895" height="551.482"><path d="M919.698 195.28c4.248 0 8.594 0 12.543-.59 3.46-1.188 5.83-2.47 8.203-3.753 2.27-1.58 4.74-2.667 6.52-4.64 2.366-2.27 4.146-4.542 5.825-7.208 5.335-8.39 6.916-19.35 4.642-29.02-2.174-8.198-5.826-14.02-9.58-17.67-1.58-1.387-4.545-3.952-6.422-5.334-8.887-5.628-22.22-6.81-33.68-1.678-6.122 3.06-11.458 7.602-15.213 13.226-5.728 8.79-7.605 20.932-4.147 31.196 3.953 11.256 12.94 20.734 25.286 24.287 2.075.592 4.147.69 6.024 1.183zm1.682-6.317c10.667.394 20.446-4.344 26.077-12.933 5.034-7.897 5.53-18.757 3.06-27.837-1.484-3.752-3.555-6.32-5.335-9.283-5.33-6.71-15.012-11.252-24.693-10.167-4.74.398-9.58 2.27-12.743 4.15-.296.097-.593.393-.787.887-1.58.296-2.274 1.576-4.152 2.764-7.012 6.516-10.665 16.483-9.283 26.256 1.382 8.097 4.743 13.626 9.977 18.757 4.642 4.048 11.16 6.616 17.878 7.406zm12.84-10.563h6.815l-10.075-17.277c5.53-1.382 7.605-3.06 8.99-6.714 1.478-3.652 1.085-6.71-.894-10.76-4.443-6.912-16.293-5.33-29.728-5.428V178.4h6.815v-16.982h7.803l9.876 16.982h.397zm-17.68-23.396l12.544.394c7.212-.79 6.616-10.564 0-11.45h-12.94v11.056h.396M45.33 425.64c8.984-7.054 13.987-15.773 20.404-25.522 4.748-7.695 8.725-13.724 13.73-20.78 21.562-31.806 44.66-63.362 67.762-93.89 8.724-12.055 18.48-23.473 26.562-35.528 11.68-14.75 22.845-29.116 34.525-43.996 31.57-39.5 67.76-81.702 104.977-118.26.385 0 1.025.26 1.41.26.256.385.256.766.642 1.026-3.337 10.133-9.37 17.828-14.117 27.577-7.058 12.31-13.732 23.473-20.404 35.142-3.08 3.974-4.747 8.723-7.442 12.443l-41.58 70.673c-6.673 11.415-10.784 19.11-15.4 26.55-7.06 12.443-10.395 17.702-15.148 26.806-5.002 9.11-10.01 17.06-14.37 25.783-9.11 16.16-20.15 30.142-27.593 48.61-.896 4.105-1.666 7.7-.256 11.035 1.286 1.794 3.724 3.074 6.29 3.074 7.828-3.974 20.148-19.11 33.625-36.936 4.36-6.67 9.753-12.955 14.37-19.37 17.84-22.832 36.578-44.634 57.75-66.443 6.034-5 10.396-10.003 14.373-14.748 9.754-8.34 17.453-20.778 27.852-24.753-2.955 13.34-13.732 24.113-19.38 37.576l-9.752 14.37-6.418 11.413c-1.28.645-1.026 2.31-2.312 3.72-14.5 28.477-47.996 67.98-42.604 87.092 1.282 3.08 2.312 6.415 6.033 7.055 6.672 0 10.01-3.975 15.142-7.695 18.736-20.14 39.14-39.25 58.26-60.03 15.146-16.033 31.574-34.502 50.052-47.2 0 0 .64.255.64.64l-12.705 20.397-9.11 14.495-20.408 35.782c-.642 3.718-3.333 6.03-4.748 10.132-8.984 18.473-17.067 42.586-7.7 61.95 3.338 7.698 10.01 11.803 17.454 14.753 10.78 2.435 20.79-3.975 28.492-8.34 16.808-10.773 31.824-22.057 49.022-32.19 8.725 8.08 21.815 11.03 33.88 8.334 17.454-4.36 29.514-13.08 42.865-22.06 7.828-5.39 14.757-10.133 22.2-15.393 1.285-.77 1.285-1.025 2.31-1.41.64 0 1.41 0 1.667.385l-2.692 8.72c-3.597 8.723-7.703 16.678-10.013 28.477 0 4.743 1.285 9.362 3.72 12.698 4.622 6.025 14.76 5.384 22.46 2.435 27.463-10.39 47.227-26.553 70.456-43.352 0 0 .642 0 .642.77-.642 8.72-10.01 15.65-6.418 25.138 1.67 3.59 5.392 3.975 8.728 4.62 4.107-.645 7.06-1.284 10.135-3.334 10.4-6.03 14.376-16.035 19.764-25.143 4.75-12.44 14.762-24.497 11.68-38.86-.64-1.41-1.67-2.31-2.31-3.336-5.003-2.44-11.42-1.67-16.813.64-14.756 8.08-27.077 17.06-41.193 26.167-5.003 3.722-8.343 5.642-13.475 8.722-12.317 7.314-22.456 14.75-26.823 16.033-1.28 0-2.308-1.025-2.95-2.31 1.028-5.385 2.694-10.39 3.594-14.108 5.387-15.01 12.832-27.448 19.89-39.247 29.133-39.892 78.41-70.418 113.705-106.205 1.024-.77 1.28-1.025 1.665-1.025 22.074-21.42 39.528-42.586 57.366-64.39 6.418-8.338 10.78-14.75 15.787-22.187 5.003-6.93 9.75-12.06 11.42-21.68-.384-4.744-.77-10.132-4.36-13.082-6.035-4.745-13.733-2.05-20.15-.77-20.15 7.44-34.525 17.83-50.053 28.603-9.37 7.7-19.12 15.393-27.077 23.088l-25.922 24.118c-4.62 5-8.73 9.746-13.09 15.134-11.68 12.314-21.43 25.778-31.185 38.862-1.285 3.08-2.95 5.005-4.62 7.7-2.052 1.664-2.052 3.333-3.723 5-1.025 3.333-3.08 5.388-4.747 8.463-5.263 8.724-10.395 17.063-15.402 25.783-2.695 2.31-3.72 6.67-6.413 9.364-1.286 4.36-3.982 6.414-5.648 10.133-2.056 3.335-3.336 6.67-5.006 9.62-1.025 2.435-2.436 4.745-3.08 7.44-7.06 8.72-15.398 13.723-23.742 20.778l-22.455 15.392c-4.367 2.05-6.803 4.36-11.17 6.41-5.388 4.364-11.035 6.67-16.422 10.775-8.343 3.594-16.04 10.393-26.18 9.364-.256-.385-.64-.77-1.28-1.41-.387-.255-.387-1.025-.387-1.025 5.773-6.668 12.446-11.288 18.478-17.442 11.677-10.393 23.872-21.038 34.522-31.812 7.444-7.31 13.476-13.724 17.838-21.42 1.286-2.31 1.926-5.388 3.337-7.694 1.285-5.003-.64-10.392-3.077-13.468-11.295-7.055-27.467-4.364-40.557-.26-8.34 3.98-15.397 7.954-22.842 13.084-3.334.9-13.09 11.674-17.45 15.393-2.953 3.976-5.263 7.31-8.73 11.672-2.31 3.078-12.96 20.137-17.068 31.936-2.055 7.314-3.335 13.084-5.387 20.013-7.317 6.415-13.735 11.16-21.05 16.42-1.024.38-1.666 1.024-2.696 1.41-3.722 4.744-9.11 5.384-13.086 9.103-8.474 6.03-14.506 11.035-23.87 8.98-.645 0-1.027-.385-1.027-.385-4.366-17.314 6.798-36.17 13.087-51.945 2.055-1.925 2.44-4.62 3.722-6.286 7.058-14.493 14.116-27.192 22.203-39.89 10.01-15.134 13.73-20.778 21.685-33.222l40.298-59.384c3.72-7.054 11.42-12.7 10.395-21.808-.64-1.28-1.67-2.306-2.31-2.69-4.364-1.026-9.11-1.026-13.733 0-14.5 7.054-26.562 16.42-39.013 26.807l-10.01 9.104c-22.844 18.088-42.992 42.97-65.448 61.695 0 0-.64 0-1.026-.386-1.285-.895 0-3.59.767-5 10.654-20.78 21.048-41.94 32.47-61.054 5.39-9.62 10.393-17.7 15.786-26.423 7.7-13.724 16.168-25.782 23.486-39.247 2.052-5.645 8.34-12.7 4.747-18.473-3.08-1.92-7.443-2.95-11.165-1.28-2.566 1.665-5.647 3.334-8.34 5.64-5.39 3.34-9.758 7.443-13.734 10.78-2.307 2.948-5.388 5.383-7.444 7.308-4.618 3.72-8.98 9.105-13.73 14.11-.257.383-.64.64-1.282.64l-15.786 16.802c-3.977 6.03-10.01 9.364-15.143 16.163-10.015 10.39-23.74 22.7-35.552 33.093-.254 0-.64-.256-.64-.645 7.444-16.803 17.453-30.782 26.177-45.916 2.315-3.975 3.726-5.39 5.393-8.08 9.37-18.343 19.764-35.147 29.133-54 6.673-11.03 12.45-22.062 17.84-33.477 5-9.364 10.394-17.702 15.01-27.448 4.112-7.698 8.09-15.138 9.76-24.113 0-2.054-.387-4.108-.646-5.774-1.025-2.694-3.72-3.978-6.418-4.36-10.01 1.41-16.422 9.106-23.48 14.365-2.697 3.463-6.033 5.13-8.088 7.824-6.674 6.668-14.373 14.753-21.43 21.803.385-.386-6.29 7.697-10.395 11.672l-7.318 7.696L259 120.503c-5.386 5.644-14.5 14.75-15.78 16.418-6.033 7.44-56.08 68.75-65.71 81.19-5.133 6.672-9.11 12.698-13.472 17.702-3.98 5.004-7.318 9.364-10.013 13.468-7.058 9.75-15.527 22.063-23.482 32.837l-14.76 21.163-20.79 31.167-40.038 64.646c-3.337 5.77-6.674 10.388-9.37 17.058-1.28 2.436-2.95 6.16-1.666 8.466.385.64.385 1.025 1.025 1.025h.385zm384.742-94.272c7.7-5.39 15.783-11.03 22.456-18.468 3.34-1.924 5.39-5.26 8.344-8.34 5.772-6.03 14.116-11.67 13.86-20.393-.385-.77-1.026-1.41-2.056-1.794-10.78 1.025-16.166 9.105-24.51 15.774-5.004 4.75-7.314 10.133-11.42 14.753-2.312 6.414-8.085 11.16-7.32 18.853l.646-.385zm160.287-88.886l19.888-15.394c5.648-4.36 15.017-13.724 14.762-13.34 7.313-6.413 16.427-14.108 23.485-21.162 23.1-22.447 50.948-44.636 60.702-73.493-.644-2.31-.385-1.67-1.415-2.566-10.39 0-16.682 7.95-24.766 13.08-10.14 8.338-20.79 17.703-30.16 28.092-6.03 6.028-11.163 11.028-14.756 16.417-8.47 9.364-17.197 20.138-25.155 31.553-7.443 9.75-18.48 22.447-23.226 36.812h.64m275.788 168.665c15.782 0 29.513-7.95 41.323-15.004 11.422-8.465 23.74-17.444 32.85-28.862l1.93-4.1c0-.26-.26-.645-.644-.645-9.754 1.67-15.012 10.135-25.152 13.47-14.116 7.053-33.88 19.753-50.95 12.443-6.03-4.75-8.084-11.16-7.06-18.473 6.033-30.528 29.904-45.02 37.217-71.828-.64-.895-1.665-1.92-2.05-2.95-2.95-2.69-8.34-.64-11.68 1.284-3.72 2.436-6.67 5-10.01 7.44-14.756-4.364-32.21-11.03-46.966-1.668-12.45 8.978-30.93 13.338-47.356 13.983-1.03-.645-1.285-.645-1.67-.9 0-.385-.386-.77-.642-1.025 0-1.41 1.282-2.695 1.667-4.36 10.4-19.497 22.075-35.917 32.854-53.615 2.952-3.465 6.418-8.468 8.73-12.443 15.782-23.088 27.46-34.247 34.905-56.307-1.41-3.08 0-5.773-7.698-2.438-6.804 2.694-12.45 7.824-17.84 12.828-5.39 4.615-10.01 10.645-14.76 15.39-4.617 6.03-7.314 9.363-13.09 16.032-5.388 6.16-8.34 12.444-13.727 18.47-19.124 14.752-38.632 25.14-57.75 40.275-5.264 3.336-9.37 7.055-15.018 9.75-.642 0-1.026-.386-1.026-1.026 7.058-14.75 15.397-28.476 23.485-42.585 3.976-5.77 6.028-9.36 8.98-14.363 5.776-9.11 11.808-16.804 17.452-25.523 11.17-16.164 22.845-32.582 33.625-47.97 1.285-2.955 3.72-5.006 3.72-8.34 0-1.025-.77-1.67-1.795-2.054-12.705-2.306-24.38 3.338-32.084 13.468-4.107 5.644-8.724 10.644-12.446 15.65-8.088 10.132-14.116 20.137-21.174 30.27-7.318 12.06-14.376 23.73-21.434 35.527-4.748 7.055-7.7 13.724-11.807 19.754l-16.04 27.447c-1.027 4.105-3.723 6.8-5.778 10.392-5.005 8.08-18.095 4.745-23.742 12.44-1.41 3.974.26 8.08 1.67 11.798 7.7 16.034-10.78 29.503-6.417 45.536 1.41 2.31 4.107 3.72 6.804 4.36 4.617 1.025 9.624 0 12.705-2.31.254-1.41 1.665-1.41 2.305-2.05 14.12-47.97 51.978-78.758 92.917-101.97h1.41c1.666.385 1.026 2.438.64 3.463-12.705 13.34-14.756 37.838-35.545 42.582-4.107.255-6.418 1.924-7.444 5.004-2.95 7.694 6.8 12.314 3.72 19.753-4.364 12.44-13.345 23.853-12.704 37.197 1.925 4.104 6.672 3.334 10.394 3.334 22.456-8.34 22.84-37.84 37.217-52.335 7.314-3.334 18.48-6.924 26.822-5-3.977 10.39-14.757 21.548-11.68 35.913 1.286 6.414 5.648 10.388 10.655 13.083 11.806 4.36 24.51 1.668 35.29-2.696 4.618-1.664 8.725-3.72 12.707-5.385.385 0 .64 0 1.025.385.255.64.255 1.664.255 2.69.384 6.288.77 12.06 2.695 18.088 3.723 9.364 12.062 15.778 22.586 18.083 1.67 0 3.337 0 4.622.64zm-48.253-52.33c5.004.384 10.65-1.666 15.013-3.976 5.392-4.358 11.806-10.003 14.76-16.8 2.438-3.593 5.133-9.62 3.718-14.367-.64-1.028-.64-1.67-1.026-2.054-4.362-3.59-11.42-3.335-17.452-.64-9.625 3.974-17.453 11.414-22.456 21.162-.645 4.62-1.285 9.75 1.025 12.7 1.027.64 1.282 1.41 2.052 2.05l4.365 1.924zM641.693 294.17c8.468.384 14.5-3.975 19.122-10.005 3.078-4.744 5.388-11.16 3.078-16.803-2.307-3.72-5.388-7.054-9.366-7.695-7.702-2.436-14.76 2.305-19.123 7.054-3.722 5.644-7.7 14.364-3.722 20.78 2.052 3.588 6.034 6.027 10.01 6.668" fill="#e2001a" fill-rule="evenodd"/><path d="M325.968 515.744c118.64-58.3 238.17-58.3 356.813 0" fill="none" stroke="#c5c6c8" stroke-width="23.634" stroke-linecap="round" stroke-linejoin="round" stroke-miterlimit="2.613"/></svg>