<svg xmlns="http://www.w3.org/2000/svg" width="210mm" height="50mm" viewBox="0 0 210 50" shape-rendering="geometricPrecision" text-rendering="geometricPrecision" image-rendering="optimizeQuality" fill-rule="evenodd" clip-rule="evenodd"><defs><style><![CDATA[
    .fil0 {fill:#009999}
   ]]></style></defs><g id="Ebene_x0020_1"><path class="fil0" d="M200.12 10.347v5.83c-3.02-1.141-5.707-1.718-8.06-1.718-1.394 0-2.504.257-3.34.756-.833.503-1.26 1.123-1.26 1.854 0 .972.943 1.837 2.84 2.61l5.48 2.67c4.43 2.11 6.63 4.915 6.63 8.44 0 2.928-1.166 5.264-3.52 6.993-2.335 1.747-5.48 2.612-9.394 2.612-1.807 0-3.43-.078-4.87-.24-1.44-.156-3.097-.475-4.934-.93v-6.1c3.368 1.14 6.435 1.716 9.197 1.716 3.294 0 4.933-.954 4.933-2.88 0-.96-.67-1.735-2.034-2.34l-6.09-2.595c-2.244-1.016-3.913-2.246-5.006-3.704-1.075-1.47-1.622-3.157-1.622-5.084 0-2.697 1.136-4.87 3.382-6.522 2.262-1.64 5.265-2.46 9-2.46 1.212 0 2.61.107 4.16.305 1.56.21 3.062.468 4.507.787zM27.722 10.347v5.83c-3.02-1.141-5.704-1.718-8.057-1.718-1.398 0-2.504.257-3.338.756-.835.503-1.26 1.123-1.26 1.854 0 .972.954 1.837 2.85 2.61l5.482 2.67c4.413 2.11 6.615 4.915 6.615 8.44 0 2.928-1.17 5.264-3.506 6.993-2.354 1.747-5.48 2.612-9.41 2.612-1.806 0-3.432-.078-4.873-.24-1.44-.156-3.08-.475-4.93-.93v-6.1c3.382 1.14 6.45 1.716 9.193 1.716 3.295 0 4.934-.954 4.934-2.88 0-.96-.666-1.735-2.017-2.34l-6.087-2.595c-2.263-1.016-3.932-2.246-5.007-3.704-1.093-1.47-1.627-3.157-1.627-5.084 0-2.697 1.128-4.87 3.386-6.522 2.246-1.64 5.252-2.46 8.986-2.46 1.226 0 2.607.107 4.173.305 1.55.21 3.05.468 4.492.787zM34.003 9.8h8.926v30.048h-8.927zM71.687 9.8v5.554H58.424v6.663h11.503v5.008H58.424v6.994h13.534v5.828H49.834V9.8zM113.358 9.8v30.048h-8.333V20.03L96.38 40.124h-5.146L82.92 20.03v19.818H76.89V9.8h10.896l7.438 18.395L103.008 9.8zM142.103 9.8v5.554h-13.19v6.663h11.503v5.008h-11.503v6.994h13.46v5.828H120.25V9.8zM173.424 9.8v30.048h-9.468L153.33 20.576v19.272h-6.022V9.8h9.744l10.35 18.94V9.8z"/></g></svg>