<svg width="66" height="54" viewBox="0 0 66 54" xmlns="http://www.w3.org/2000/svg"><title>Group 6</title><g stroke="#3B2114" fill="none" fill-rule="evenodd"><path d="M60.77 38.643c.014 3.31-2.663 5.994-5.966 5.994h-43.75c-3.308 0-5.99-2.687-5.99-6.007V26.82s6.355-8.234 9.432-21.182c.957-4.026 5.908-4.44 5.908-4.44H45.13s3.898-.607 6.012 3.894c2.115 4.5 5.04 17.38 9.583 22.338l.046 11.213z" stroke-width="2"/><path d="M30.453 7.56h5.383M9.798 19.85s3.235 2.31 6.204 2.373l34.45-.058s5.138-.98 5.997-2.4M11.188 16H6.224C4.444 16 3 17.447 3 19.223c0 1.78 1.442 3.224 3.218 3.224h1.91M55 16h4.964c1.78 0 3.224 1.447 3.224 3.223 0 1.78-1.442 3.224-3.218 3.224h-1.91M8.726 38.282H14.2M16.887 38.374h31.83M52.182 38.424H57.7M8 44v6.705c0 1.103.895 1.996 1.997 1.996h4.084c1.104 0 1.998-.892 1.998-1.99v-6.065M50.016 44.687V50.7c0 1.105.895 2 1.997 2h4.084c1.103 0 1.997-.897 1.997-1.994v-6.703M.588 52.735h64.665M5.432 28s12.677.317 12.08 5.214c0 .863-.9 1.562-1.996 1.562H5M60.1 28s-12.677.317-12.08 5.214c0 .863.9 1.562 1.997 1.562h10.515"/><path d="M28.5 31.5v3M32.5 31.5v3M37.5 31.5v3M42.5 31.5v3M22.5 31.5v3" stroke-linecap="square"/></g></svg>