<svg width="51" height="51" viewBox="0 0 51 51" xmlns="http://www.w3.org/2000/svg"><title>Page 1</title><path d="M25.5 28.484c-1.648 0-2.985-1.337-2.985-2.984 0-1.648 1.337-2.984 2.984-2.984s2.983 1.336 2.983 2.984c0 1.647-1.336 2.984-2.984 2.984m0-10.547c-4.17 0-7.562 3.394-7.562 7.563 0 4.17 3.392 7.56 7.56 7.56 4.17 0 7.564-3.39 7.564-7.56s-3.394-7.563-7.563-7.563m0 18.21c-5.873 0-10.65-4.775-10.65-10.647 0-5.873 4.777-10.65 10.65-10.65 5.872 0 10.648 4.777 10.648 10.65 0 5.872-4.776 10.648-10.65 10.648m0-24.49c-7.63 0-13.837 6.21-13.837 13.842 0 7.63 6.21 13.838 13.84 13.838s13.838-6.21 13.838-13.838c0-7.632-6.21-13.84-13.84-13.84m20.607 24.23c-2.874-1.282-6.407-.655-8.636 1.58-2.3 2.297-2.864 5.758-1.583 8.635-1.02.514-2.075.952-3.16 1.308-1.13-2.94-3.974-4.99-7.228-4.99-3.254 0-6.1 2.05-7.225 4.99-1.087-.356-2.144-.794-3.163-1.308 1.284-2.875.72-6.338-1.58-8.638-1.458-1.457-3.396-2.26-5.458-2.26-1.096 0-2.183.237-3.18.682-.515-1.022-.954-2.08-1.31-3.166 2.94-1.126 4.99-3.972 4.99-7.224 0-3.254-2.05-6.1-4.99-7.227.356-1.084.795-2.142 1.31-3.162.997.447 2.086.683 3.18.683 2.064 0 4-.803 5.46-2.26 2.3-2.3 2.863-5.763 1.578-8.64 1.02-.514 2.075-.95 3.163-1.308 1.126 2.94 3.97 4.988 7.224 4.988 3.253 0 6.098-2.05 7.226-4.988 1.086.357 2.14.794 3.16 1.307-1.283 2.878-.72 6.34 1.583 8.64 1.456 1.458 3.394 2.26 5.455 2.26 1.095 0 2.183-.236 3.18-.68.515 1.02.954 2.075 1.31 3.16-2.942 1.13-4.99 3.974-4.99 7.228 0 3.252 2.048 6.098 4.99 7.224-.356 1.086-.795 2.145-1.31 3.165m3.504-5.88c-2.28-.294-3.996-2.23-3.996-4.51s1.717-4.22 3.995-4.512c.452-.06.857-.31 1.114-.686.258-.378.34-.847.226-1.29-.62-2.436-1.582-4.764-2.868-6.922-.232-.392-.622-.667-1.07-.753-.453-.084-.914.026-1.276.305-1.757 1.36-4.44 1.206-6.012-.367-1.614-1.61-1.77-4.196-.37-6.014.28-.358.394-.822.308-1.27-.087-.45-.36-.84-.752-1.074C36.757 1.634 34.43.67 31.987.05c-.445-.113-.912-.03-1.29.224-.378.258-.627.665-.686 1.116-.29 2.276-2.232 3.994-4.51 3.994-2.28 0-4.22-1.718-4.51-3.992-.06-.453-.31-.86-.687-1.118-.378-.255-.845-.335-1.288-.225-2.444.62-4.774 1.584-6.927 2.866-.392.233-.665.624-.75 1.074-.087.448.026.912.305 1.27 1.402 1.82 1.247 4.404-.365 6.017-1.57 1.57-4.255 1.725-6.016.365-.362-.278-.824-.386-1.274-.305-.45.086-.84.36-1.072.753C1.63 14.25.666 16.58.05 19.013c-.113.444-.03.913.227 1.29.256.375.663.626 1.114.685 2.28.292 3.995 2.233 3.995 4.512 0 2.28-1.716 4.216-3.994 4.51-.45.06-.857.308-1.113.686-.257.378-.34.847-.228 1.288.616 2.436 1.58 4.766 2.866 6.925.233.392.622.666 1.072.752.446.08.912-.027 1.273-.305 1.768-1.358 4.45-1.204 6.016.366 1.613 1.612 1.77 4.197.367 6.014-.28.362-.39.826-.304 1.274.085.448.36.84.75 1.073 2.154 1.282 4.484 2.245 6.925 2.867.13.032.26.048.392.048.316 0 .628-.092.896-.276.378-.256.627-.663.686-1.115.29-2.277 2.23-3.993 4.51-3.993 2.278 0 4.22 1.716 4.51 3.993.06.453.31.86.688 1.115.377.26.844.34 1.29.228 2.438-.622 4.766-1.585 6.92-2.867.392-.233.666-.624.752-1.072.086-.447-.026-.91-.305-1.272-1.4-1.818-1.242-4.403.37-6.014 1.57-1.572 4.252-1.724 6.013-.367.36.28.825.39 1.273.305.45-.086.84-.36 1.072-.753 1.286-2.16 2.25-4.49 2.868-6.926.113-.44.032-.91-.226-1.287-.257-.38-.662-.628-1.115-.686" fill="#3B2113" fill-rule="evenodd"/></svg>