<svg width="67" height="69" viewBox="0 0 67 69" xmlns="http://www.w3.org/2000/svg" xmlns:xlink="http://www.w3.org/1999/xlink"><title>around</title><defs><path id="a" d="M17.47.194v47.71H.494V.193H17.47z"/></defs><g fill="none" fill-rule="evenodd"><path d="M16.617 11.74c3.09-1.988 6.53-3.183 10.285-3.597v5.905c0 .463.25.89.65 1.116.192.108.406.162.62.162.23 0 .46-.064.664-.19L38.988 8.84l.01-.008c.078-.05.15-.11.216-.176.02-.02.038-.043.058-.065.046-.052.087-.108.124-.168.016-.026.032-.05.046-.078.035-.066.063-.137.085-.21.007-.023.017-.044.023-.067l.006-.018c.022-.094.032-.186.034-.277V7.76c0-.016-.004-.03-.004-.047-.003-.08-.012-.16-.03-.236-.005-.03-.014-.058-.023-.087-.02-.07-.045-.134-.077-.198-.01-.025-.022-.05-.036-.075-.047-.083-.102-.163-.168-.234l-.02-.018c-.06-.064-.13-.12-.205-.17l-.025-.023L28.85.198c-.39-.25-.885-.264-1.29-.04-.406.225-.658.654-.658 1.12V5.57c-4.25.425-8.153 1.762-11.667 4.025C3.332 17.26.155 32.577.025 33.225c-.138.692.307 1.365.994 1.505.083.017.168.025.25.025.592 0 1.122-.418 1.243-1.025.03-.148 3.112-14.924 14.104-21.99" fill="#3B2113"/><g transform="translate(49.235 10.34)"><mask id="b" fill="#fff"><use xlink:href="#a"/></mask><path d="M16.832 39.85l-3.703-2.13c1.74-3.927 2.52-8.002 2.31-12.197C14.727 11.313 3.09.943 2.595.508 2.067.045 1.265.1.805.632.75.698.7.768.66.84c-.294.517-.196 1.188.267 1.594.113.1 11.33 10.12 11.978 23.235.183 3.687-.49 7.287-1.995 10.776L5.817 33.52c-.4-.23-.89-.224-1.285.015-.19.115-.34.275-.446.46-.115.203-.175.436-.166.678l.4 11.998v.014c.005.093.022.185.046.276.007.028.018.055.027.083.023.066.05.13.084.193l.044.078c.04.063.09.123.14.18.017.016.03.035.046.05l.014.017c.068.066.143.12.22.166.005.002.008.006.012.008.013.008.03.01.043.018.07.038.143.07.217.092.03.01.058.016.087.023.068.016.138.026.208.03.027.002.055.006.083.006.097 0 .192-.01.286-.03l.025-.01c.087-.02.17-.054.25-.094.01-.006.02-.007.032-.013l10.615-5.67c.41-.218.666-.643.675-1.11.006-.465-.238-.897-.64-1.128" fill="#3B2113" mask="url(#b)"/></g><path d="M46.464 64.39c-.31-.508-.942-.742-1.518-.528-.142.052-14.248 5.17-25.992-.54-3.303-1.604-6.12-3.925-8.44-6.925l4.99-3.1c.39-.243.622-.68.602-1.143-.01-.222-.076-.433-.188-.616-.12-.197-.296-.363-.51-.47L4.756 45.674l-.012-.004c-.083-.04-.17-.07-.26-.093l-.087-.015c-.07-.012-.138-.018-.21-.018-.03 0-.058 0-.088.002-.075.005-.15.018-.224.037-.022.006-.045.008-.067.015l-.02.004c-.09.03-.173.07-.25.117-.005 0-.01.002-.013.004-.014.01-.024.02-.037.03-.067.044-.128.093-.184.148-.022.02-.042.043-.06.066-.05.053-.09.11-.128.17l-.044.07c-.046.085-.084.174-.11.267-.003.008-.003.018-.005.026-.023.088-.034.177-.038.267 0 .01-.004.022-.005.034l-.14 12.1c-.006.466.24.897.643 1.127.403.23.898.22 1.292-.025L8.34 57.75c2.59 3.418 5.77 6.06 9.526 7.883 12.73 6.176 27.344.856 27.96.626.657-.246.992-.98.75-1.642-.03-.082-.068-.158-.112-.23" fill="#3B2113"/></g></svg>