<svg width="69" height="68" viewBox="0 0 69 68" xmlns="http://www.w3.org/2000/svg" fill="#5B3D28"><title>settings</title><g fill-rule="nonzero" fill="none"><path d="M48.563 13.354c3.81 0 6.9 3.072 6.9 6.856s-3.09 6.856-6.9 6.856c-3.808 0-6.9-3.072-6.9-6.856s3.092-6.856 6.9-6.856z"/><path d="M48.662 52.855c-.197.49-.76.713-1.237.517L44.25 52.06c-.563-.238-1.21-.042-1.547.46-1.433 2.137-3.26 3.952-5.41 5.376-.506.335-.703.977-.464 1.536l1.306 3.156c.197.474-.028 1.033-.52 1.228l-3.457 1.44c-.48.194-1.04-.03-1.237-.518l-1.32-3.156c-.24-.558-.83-.88-1.42-.754-2.53.503-5.102.503-7.646 0-.59-.11-1.194.196-1.42.754l-1.32 3.156c-.197.475-.76.712-1.237.517l-3.457-1.425c-.238-.097-.42-.28-.52-.516-.098-.238-.098-.49 0-.726l1.32-3.156c.24-.56.044-1.2-.462-1.536-2.15-1.424-3.976-3.24-5.41-5.376-.337-.502-.983-.698-1.546-.46L5.31 53.372c-.493.196-1.04-.028-1.238-.517L2.638 49.42c-.196-.474.03-1.033.52-1.228l3.176-1.313c.562-.238.886-.825.76-1.41-.507-2.514-.507-5.07 0-7.597.112-.586-.198-1.187-.76-1.41L3.158 35.15c-.238-.097-.42-.28-.52-.516-.098-.238-.098-.49 0-.726l1.434-3.435c.098-.238.28-.42.52-.517.24-.098.492-.098.73 0L8.5 31.27c.56.236 1.207.04 1.544-.462 1.434-2.137 3.26-3.952 5.41-5.376.507-.335.703-.977.464-1.536l-1.32-3.156c-.1-.237-.1-.488 0-.726.098-.237.28-.42.52-.516l3.456-1.425c.478-.195 1.04.028 1.237.517l1.322 3.156c.267.642 1.012.95 1.658.684.647-.265.956-1.005.69-1.648l-1.322-3.155c-.745-1.774-2.782-2.61-4.567-1.885l-3.456 1.424c-.857.35-1.532 1.02-1.897 1.885-.352.853-.352 1.802 0 2.668l.927 2.22c-1.77 1.3-3.33 2.848-4.65 4.622l-2.236-.922c-.857-.35-1.813-.35-2.684 0-.857.35-1.532 1.02-1.897 1.885L.263 32.958c-.35.852-.35 1.8 0 2.667.352.852 1.026 1.522 1.898 1.885l2.235.922c-.337 2.178-.337 4.356 0 6.534l-2.234.922c-1.784.74-2.627 2.765-1.897 4.538l1.434 3.393c.73 1.772 2.782 2.61 4.567 1.884l2.235-.922c1.305 1.76 2.865 3.31 4.65 4.622l-.927 2.22c-.352.852-.352 1.8 0 2.667.35.853 1.025 1.523 1.897 1.886l3.457 1.424c1.784.726 3.836-.11 4.567-1.885l.927-2.22c2.194.335 4.386.335 6.578 0l.928 2.22c.562 1.34 1.87 2.15 3.232 2.15.45 0 .9-.083 1.335-.265l3.457-1.424c1.785-.74 2.628-2.765 1.897-4.538l-.927-2.22c1.77-1.3 3.33-2.848 4.65-4.622l2.236.922c1.784.74 3.836-.112 4.567-1.885l1.433-3.435c.35-.852.35-1.8 0-2.667-.35-.85-1.026-1.52-1.897-1.884l-3.177-1.313c-.646-.265-1.39.042-1.658.685-.267.642.042 1.382.688 1.647l3.176 1.313c.238.098.42.28.52.516.098.238.098.49 0 .727l-1.448 3.435z" fill="#5B3D28"/><path d="M26.29 33.028c.702 0 1.264-.573 1.264-1.27 0-.7-.576-1.257-1.278-1.257h-.015c-3.006.03-5.816 1.2-7.924 3.324-2.108 2.122-3.26 4.943-3.233 7.917.03 2.99 1.21 5.782 3.345 7.876 2.122 2.08 4.92 3.21 7.884 3.21h.084c3.007-.026 5.818-1.2 7.926-3.322 2.108-2.122 3.26-4.943 3.232-7.917 0-.698-.576-1.256-1.28-1.256h-.013c-.7 0-1.264.573-1.264 1.27.014 2.305-.87 4.483-2.5 6.13-1.63 1.65-3.81 2.556-6.128 2.57h-.07c-2.29 0-4.47-.88-6.1-2.485-1.658-1.62-2.57-3.784-2.585-6.088-.014-2.304.87-4.482 2.5-6.13 1.66-1.634 3.838-2.555 6.157-2.57zM65.99 24.427c1.587 0 2.894-1.285 2.894-2.877v-2.695c0-1.577-1.293-2.876-2.895-2.876h-1.476c-.38-1.397-.928-2.738-1.66-3.98l1.055-1.048c1.124-1.117 1.124-2.946 0-4.063l-1.926-1.914c-.548-.544-1.28-.838-2.038-.838-.773 0-1.503.294-2.037.838l-1.055 1.047c-1.265-.726-2.6-1.284-4.005-1.647v-1.48c0-1.578-1.293-2.877-2.895-2.877h-2.727c-1.588 0-2.894 1.284-2.894 2.876v1.48c-1.406.377-2.755.92-4.006 1.647l-1.054-1.047c-.548-.544-1.278-.838-2.037-.838-.773 0-1.504.294-2.038.838L33.273 6.89c-1.124 1.116-1.124 2.945 0 4.062L34.328 12c-.73 1.256-1.293 2.583-1.658 3.98h-1.49c-1.588 0-2.895 1.284-2.895 2.875v2.71c0 1.577 1.293 2.876 2.895 2.876h1.49c.38 1.397.927 2.737 1.658 3.98l-1.054 1.047c-1.124 1.117-1.124 2.947 0 4.064l1.925 1.913c.547.545 1.278.838 2.037.838.773 0 1.503-.292 2.037-.837l1.054-1.047c1.265.726 2.6 1.285 4.006 1.648v1.48c0 1.578 1.292 2.876 2.894 2.876h2.727c1.588 0 2.895-1.284 2.895-2.876V36.03c1.405-.377 2.754-.922 4.005-1.648l1.054 1.048c.547.544 1.278.837 2.036.837.773 0 1.504-.293 2.038-.837l1.925-1.913c1.124-1.117 1.124-2.947 0-4.064l-1.055-1.047c.73-1.257 1.293-2.583 1.66-3.98h1.474zm-3.74-1.508c-.35 1.786-1.053 3.46-2.08 4.983-.336.503-.266 1.173.156 1.592l1.77 1.76c.14.14.14.35 0 .488l-1.925 1.913c-.083.084-.18.098-.238.098-.07 0-.154-.014-.24-.098l-1.77-1.76c-.435-.432-1.11-.488-1.6-.153-1.533 1.02-3.22 1.704-5.018 2.067-.59.112-1.026.642-1.026 1.243v2.485c0 .18-.155.335-.337.335h-2.726c-.182 0-.337-.154-.337-.335v-2.485c0-.6-.436-1.118-1.026-1.243-1.798-.35-3.484-1.047-5.016-2.067-.21-.14-.463-.21-.702-.21-.323 0-.66.127-.9.378l-1.77 1.76c-.085.084-.183.098-.24.098-.07 0-.154-.014-.238-.098l-1.925-1.913c-.142-.14-.142-.35 0-.488l1.77-1.76c.435-.434.49-1.104.154-1.593-1.026-1.522-1.715-3.197-2.08-4.984-.112-.587-.646-1.02-1.25-1.02H31.15c-.183 0-.337-.153-.337-.335v-2.723c0-.18.154-.335.337-.335h2.5c.606 0 1.126-.433 1.252-1.02.35-1.786 1.054-3.462 2.08-4.984.337-.502.267-1.173-.155-1.592l-1.77-1.76c-.086-.083-.1-.18-.1-.236 0-.07.014-.154.1-.238l1.91-1.927c.084-.083.182-.097.24-.097.07 0 .153.014.238.097l1.77 1.76c.436.433 1.11.488 1.602.153 1.532-1.02 3.218-1.703 5.017-2.066.59-.112 1.026-.642 1.026-1.243v-2.47c0-.183.155-.336.337-.336h2.727c.182 0 .337.154.337.336V5.38c0 .6.436 1.118 1.026 1.244 1.8.35 3.485 1.047 5.017 2.066.506.335 1.18.266 1.602-.153l1.77-1.76c.084-.083.182-.097.238-.097.07 0 .155.014.24.097L62.08 8.69c.14.14.14.35 0 .49l-1.77 1.758c-.436.433-.492 1.103-.155 1.592 1.026 1.522 1.715 3.198 2.08 4.985.112.586.646 1.02 1.25 1.02h2.502c.182 0 .336.153.336.334v2.708c0 .182-.154.335-.337.335h-2.502c-.605-.014-1.125.405-1.237 1.006z" fill="#5B3D28"/><path d="M48.578 12.083c-4.51 0-8.165 3.645-8.165 8.113 0 4.482 3.668 8.112 8.165 8.112 4.51 0 8.164-3.644 8.164-8.112s-3.668-8.113-8.164-8.113zm0 13.698c-3.106 0-5.622-2.498-5.622-5.584 0-3.086 2.516-5.585 5.622-5.585 3.105 0 5.62 2.5 5.62 5.586 0 3.086-2.53 5.585-5.62 5.585z" fill="#5B3D28"/></g></svg>