<svg width="75" height="65" viewBox="0 0 75 65" xmlns="http://www.w3.org/2000/svg"><title>conversation-symbol</title><path d="M66.537 12.387H62.75V8.52c0-4.683-3.782-8.49-8.43-8.49H9.074C4.425.03.645 3.837.645 8.52v26.723c0 4.682 3.78 8.49 8.428 8.49h3.79V47.6c0 4.68 3.78 8.49 8.427 8.49h34.153l7.108 8.46c.245.29.6.45.965.45.145 0 .292-.027.435-.08.498-.184.83-.66.83-1.193V56.09h1.757c4.648 0 8.428-3.81 8.428-8.49V20.877c0-4.68-3.78-8.49-8.428-8.49zm-57.464 28.8c-3.254 0-5.9-2.666-5.9-5.944V8.52c0-3.277 2.647-5.944 5.9-5.944H54.32c3.254 0 5.9 2.667 5.9 5.943v3.867H21.29c-4.648 0-8.428 3.81-8.428 8.49v20.31h-3.79zM72.44 47.6c0 3.276-2.65 5.944-5.902 5.944h-3.02c-.7 0-1.265.57-1.265 1.273v5.435l-5.257-6.257c-.24-.286-.593-.45-.965-.45H21.29c-3.254 0-5.9-2.668-5.9-5.945V20.878c0-3.278 2.647-5.944 5.9-5.944h45.248c3.255 0 5.9 2.666 5.9 5.944V47.6z" fill-rule="nonzero" fill="#482F1D"/></svg>