<svg xmlns="http://www.w3.org/2000/svg" viewBox="0 0 298.17499 144.72501" height="50" width="100"><g fill-rule="evenodd"><path d="M0 144.544h144.36V.184H0v144.36M293.85.005H153.54v144.72h144.63V.005h-4.32" fill="#2252ab"/><path d="M289.53 8.734v127.26H162.18V8.735h127.35M78.03 101.974c-1.53-1.98-2.34-4.5-2.34-7.56 0-3.15.72-5.67 2.25-7.56 1.71-1.98 4.14-3.06 7.2-3.06h.27v-5.22h-.27c-4.86 0-8.64 1.53-11.25 4.5-2.25 2.79-3.51 6.57-3.51 11.34 0 4.68 1.35 8.46 3.87 11.34 2.61 3.06 6.39 4.59 10.98 4.59h.27v-5.31h-.27c-3.06 0-5.49-.99-7.2-3.06zm-18.63 0c-1.62-1.98-2.43-4.5-2.43-7.56 0-3.15.81-5.67 2.25-7.56 1.71-1.98 4.14-3.06 7.29-3.06h.18v-5.22h-.18c-4.95 0-8.73 1.53-11.25 4.5-2.34 2.79-3.51 6.57-3.51 11.34 0 4.68 1.26 8.46 3.78 11.34 2.7 3.06 6.39 4.59 11.07 4.59h.18v-5.31h-.18c-3.15 0-5.49-.99-7.2-3.06zm17.19-51.3v14.67h5.58v-30.33h-5.58v10.62h-3.06c-1.26 0-2.16-.36-2.79-.9-.45-.36-.63-.9-.63-1.62v-8.1h-5.58v8.64c0 2.07.81 3.69 2.34 5.04 1.53 1.35 3.42 1.98 5.58 1.98h4.14zm53.37 27.18l-.36.36s-10.44 10.89-11.16 11.7v-10.62h-4.95v30.15h4.95v-12.42c.09-.09 6.3-6.75 7.02-7.47.09 1.08.72 19.89.72 19.89h4.95l-1.17-31.59zm-36.54-12.51H99v-25.29h4.68v-5.04H88.83v5.04h4.59v25.29zm12.87 12.87s-10.35 10.89-11.16 11.7v-10.62h-4.86v30.15h4.86v-12.42c.09-.09 6.39-6.75 7.11-7.47 0 1.08.72 19.89.72 19.89h4.95l-1.26-31.59-.36.36zm10.08-38.16h1.98c1.44 0 2.43.45 3.06 1.35.45.72.81 2.16.99 4.14h-6.21c0-.63.09-4.86.18-5.49zm-.27 10.53h6.93c.09.63 1.62 14.76 1.62 14.76h5.58l-2.52-22.14c0-2.88-.9-5.13-2.7-6.48-1.44-1.17-3.33-1.71-5.76-1.71h-8.28l-.99 30.33h5.58s.54-14.13.54-14.76zm-97.29-10.53h6.93v25.29h5.58v-30.33H13.23v30.33h5.58v-25.29zm2.61 55.71c-.36.72-.81 1.17-1.35 1.17s-.99-.36-1.35-1.08c-.36-.72-.54-1.8-.54-3.15v-8.91h.18c1.17 0 2.07.63 2.7 1.98.72 1.35.99 3.51.99 6.39 0 1.53-.18 2.7-.63 3.6zm-3.06-16.47h-5.13v30.15h4.95v-8.82c.9.9 1.98 1.35 3.15 1.35 1.62 0 2.97-.81 4.05-2.52 1.17-1.98 1.8-4.86 1.8-8.55 0-2.61-.45-4.86-1.44-6.84-1.44-3.15-3.96-4.77-7.38-4.77zm33.21-21.33c-.72 1.98-1.71 2.88-3.15 2.88-1.26 0-2.25-.99-2.97-2.97-.81-2.07-1.17-4.68-1.17-7.83 0-3.24.36-5.85 1.08-7.83.72-1.89 1.71-2.88 3.06-2.88 1.53 0 2.61.99 3.33 2.88.63 1.8.99 4.41.99 7.74 0 3.24-.36 5.94-1.17 8.01zm4.32 3.42c1.62-2.88 2.52-6.75 2.52-11.43 0-4.59-.9-8.46-2.61-11.34-1.71-2.88-4.23-4.32-7.38-4.32-2.97 0-5.31 1.44-7.02 4.41-1.62 2.88-2.43 6.66-2.43 11.34 0 4.77.72 8.64 2.34 11.52 1.62 2.97 4.05 4.41 7.11 4.41 3.15 0 5.67-1.53 7.47-4.59zm-13.95 40.77c-.72 1.98-1.62 2.97-2.88 2.97-1.17 0-2.16-.99-2.79-2.97-.63-2.16-.99-4.77-.99-7.92 0-3.24.36-5.94.99-7.92.63-1.89 1.62-2.88 2.79-2.88 1.35 0 2.34.99 2.97 2.97.63 1.71.9 4.41.9 7.74 0 3.24-.36 5.94-.99 8.01zm3.69-19.26c-1.62-2.88-3.78-4.32-6.57-4.32-2.61 0-4.77 1.44-6.21 4.32-1.53 2.88-2.25 6.66-2.25 11.25 0 4.86.72 8.73 2.16 11.52 1.44 2.88 3.51 4.32 6.3 4.32s5.04-1.53 6.66-4.5c1.44-2.88 2.16-6.66 2.16-11.34 0-4.59-.72-8.46-2.25-11.25" fill="#fff"/><path d="M197.37 46.805c1.08 2.43 2.88 4.86 7.65 8.1 1.08.72 2.25 2.25 1.35 4.41-.9 2.16-2.61 5.13-1.62 6.3.99 1.26 4.59 1.8 7.56.63 0 0 .63 1.89 1.71 3.06 0 0-.54.99-2.25.54 0 0 .63 1.53-.18 3.15 0 0-1.98-.36-2.79-2.16 0 0-.81 1.44-2.43 1.89 0 0-1.26-.63-.99-3.24 0 0-.99 2.34-3.87 2.7 0 0-1.71-2.16.45-5.04 0 0-1.53 1.44-4.41.81 0 0-.45-1.53 2.16-3.51 0 0-2.97-.18-4.05-2.61 0 0 1.26-1.53 4.23-1.17 0 0-2.79-.63-3.42-4.05 0 0 2.07-1.26 5.22.81 0 0-.54-1.08-1.89-2.16-1.35-1.08-2.97-4.05-2.43-8.46M209.16 80.825c-.45-.54-.72-1.17-.99-1.71.54 4.14.72 6.93 2.88 9.54 0 0 1.35-1.8.54-6.12-.36-.09-.81-.27-1.26-.54 0 0 .54 1.8.27 3.51 0 0-.81-.54-1.44-4.68M205.38 80.374c-.27-.27-.81-.99-1.08-1.53-.18 2.43-.81 8.64 1.26 10.62 0 0 1.44-1.08 1.98-10.17-.27.45-.81.99-1.08 1.35 0 0 .36 2.88-.72 4.95 0 0-1.08-.81-.36-5.22M200.34 85.145c1.8-2.07 2.34-8.37 2.34-8.37.18-.18.45-.36.72-.54l.27-.27v.72c-.27 3.78-.54 7.74-1.71 9.63-1.17 1.98-3.33 2.97-3.33 2.97-1.98-3.6.45-8.37 2.43-11.7.27-.09.54-.27.81-.36-.72 2.52-2.07 5.58-1.53 7.92M195.39 74.164c0 .45 0 .81.09.99 0 0 .09.09.09.18-1.71 1.71-2.88 3.24-5.4 6.75-2.52 3.42-6.48 3.6-6.48 3.6.36-2.79 1.17-5.04 3.24-7.47 2.16-2.34 4.86-4.5 6.84-6.03.54.272 1.17.45 2.07.362 0 0 .09-.09.18-.09-.27.358-.45.72-.54 1.08-1.53.808-5.85 3.058-7.65 6.66 0 0 2.79-.902 7.56-6.03M192.24 70.744l.18-.36c0-.09.09-.18.18-.27-1.62.63-7.47 2.88-9.27 3.78-1.89.99-4.59 3.24-6.12 7.65 0 0 3.96.36 7.2-2.25 3.15-2.7 6.93-6.39 8.55-7.65-.18-.09-.27-.27-.36-.36 0 0-4.41 3.87-9 5.49 0 0 .99-1.8 2.79-3.06 2.25-1.62 3.87-2.07 5.85-2.97M188.91 68.044c.09-.09.18-.27.18-.448-1.89.448-6.66.99-8.82 1.62-2.07.72-5.94 2.25-8.19 6.57 0 0 3.33 1.08 9.63-1.89 6.39-2.97 8.37-3.602 9.54-3.96-.99-.09-1.62-.36-1.98-.63-2.52 1.17-5.94 2.52-9.27 2.61 0 0 1.62-1.17 3.42-1.892 1.89-.81 3.96-1.53 5.49-1.98M189.09 64.895c.63.36 1.08.45 1.89.54-.45.27-.81.63-1.26 1.17-2.16.63-6.03 1.35-12.24 1.8-6.3.45-9.63-.72-9.63-.72 2.16-1.35 5.67-2.7 8.01-3.15 2.34-.45 8.55-.45 11.25-.81 0 .09.36.36.9.63-2.25.27-7.11.45-9.63 1.71 0 0 4.59.63 10.71-1.17M188.64 61.295c.27-.18.72-.36 1.17-.54-3.24-.9-7.56-2.52-14.13-2.88-4.86-.36-8.28-.09-10.08.36 0 0 4.41 3.15 9.36 4.23 5.04 1.08 9.09.36 12.06.45.18-.36.45-.63.81-.99-3.51 0-9.27-.9-11.34-1.53 0 0 5.04-1.08 12.15.9M188.64 57.605c0 .09.36 1.89 2.43 2.88-4.5-1.98-13.23-3.15-18-5.04-6.39-2.7-7.56-6.03-7.56-6.03 5.58-.09 9.99 1.26 13.5 2.25 3.96 1.26 10.17 3.6 12.33 4.5-.81.09-1.71.27-2.43.81-3.06-1.17-4.41-1.62-7.2-2.43-2.16-.63-3.69-.72-5.04-.81 0 0 1.89 1.26 5.04 2.25 3.06.99 4.41 1.08 6.93 1.62M188.28 52.744l.9 1.35c-7.02-1.17-14.85-6.57-17.19-9.81-2.43-3.33-1.71-8.28-1.71-8.28 2.25.452 7.38 4.86 8.64 6.12 1.35 1.352 5.31 5.22 8.01 7.38l.9 2.43c-2.34-1.89-5.13-3.96-6.93-5.31-1.26-.99-3.33-2.43-5.31-3.06 0 0 1.89 2.34 3.33 3.512 1.71 1.35 3.42 2.52 4.86 3.33 1.26.63 1.89 1.078 4.5 2.338" fill="#2252ab"/><path d="M208.17 72.456c.18-.182.36-.36.54-.54.36.45 1.44 1.798 1.98 3.148.36 1.17.81 2.7.99 3.6.27.9.9 2.79 1.26 3.42 0 0-1.71.27-2.97-1.26-1.26-1.44-1.71-2.88-1.89-4.41-.09-1.17-.09-2.79.09-3.958M205.47 72.724c.27.36.63.54.63.54l.27.18.18-.09c.27-.09.45-.178.63-.27.27.72.36 1.08.45 1.62.09.81.18 2.07-.09 3.06-.36 1.26-1.08 1.98-1.53 2.43 0 0-1.08-1.26-1.44-2.25-.36-1.08-.45-2.34 0-3.6.18-.63.54-1.26.9-1.62M201.6 72.814c1.17-.18 1.98-.54 2.7-1.08.09.45.36.99.18 1.71-.18.81-.72 1.62-1.53 2.25-1.08.99-2.7 1.8-4.41 1.53 0 0-.36-1.26 3.06-4.41M200.25 70.654c.18 1.17.72 1.892.72 1.892-.36.54-1.8 2.968-4.86 2.61 0 0-.81-1.712 1.26-3.06 1.35-.9 1.98-1.082 2.88-1.442M200.52 68.495c-.81.27-1.8.36-3.15 0l-.27-.09-.18-.27c-1.53 1.26-3.33 1.44-3.96 2.61 0 0 .72 1.44 2.79 1.17 1.98-.27 3.51-1.17 4.59-2.52 0-.27.09-.63.18-.9M197.1 66.785c.27-.45.45-1.08 1.08-1.8-1.35-.18-2.52-.18-4.14.09-1.8.36-3.69.81-4.68 3.6 0 0 1.17.99 3.33.54 1.89-.36 3.42-1.17 4.41-2.43M196.29 63.724c-.45-.45-.9-.99-1.17-1.62l-.18-.36c-1.62-.63-3.33-.99-4.95-.36-1.62.54-2.07 1.26-2.52 1.89 0 0 1.89 1.53 3.96 1.62 2.07 0 4.05-.54 4.86-1.17M196.74 60.394c.27-.09.63-.18.99-.27-.72-.63-1.44-1.62-1.8-2.97-.72.09-2.52.18-3.24-.18-.81-.27-2.34-.27-3.51.45 0 0 .45 2.07 3.15 2.79 2.43.72 3.42.54 4.41.18M195.84 56.346l.27-.18c.09-.09.72-.45 1.71-.54-.9-.63-2.88-2.34-4.41-3.152-1.53-.9-4.14-2.07-5.49-2.25 0 0 1.26 3.33 2.7 4.59 1.53 1.44 2.61 1.892 5.22 1.532M198.54 54.815c-.63-.81-1.17-1.98-1.53-3.33-.36-1.08-.99-3.87-1.44-4.59-.36-.63-1.89-3.15-4.77-3.96 0 0-.81 3.24.72 5.85 1.17 2.16 3.78 4.5 7.02 6.03M214.56 69.845c.36.36.63.63 1.26.9 0 0 .99 1.8-.18 3.87-1.08 2.16-2.07 4.32-2.52 5.58 0 0-.54-.09-1.26-3.42-.45-2.25-.99-2.88-1.62-3.6.63.27 1.17.45 1.26.45h.45l.18-.36c.36-.81.54-1.53.54-2.16 0-.18 0-.36-.09-.54 1.08 0 1.62-.45 1.8-.72l.09-.09.09.09" fill="#2252ab"/><path d="M189.99 44.285V46.175c-1.71-2.25-3.69-4.86-5.67-7.29-1.35-1.62-2.43-2.61-3.69-3.42.99 3.06 2.88 5.49 4.23 6.75 1.35 1.17 3.33 3.24 5.22 4.5l.18.63c.18.63.36 1.17.72 1.71.36.81.99 1.53 1.71 2.34-.63-.27-1.26-.63-1.89-.9l-.54-.18c-5.22-2.79-10.35-8.55-12.51-12.51-2.07-3.96-1.17-8.64-.63-11.07 2.34 1.98 5.76 5.94 7.2 8.1 1.89 2.61 4.23 6.39 5.67 9.36v.09M263.07 61.295c-.36-.18-.72-.36-1.17-.54 3.15-.9 7.56-2.52 14.13-2.88 4.77-.36 8.28-.09 10.08.36 0 0-4.41 3.15-9.45 4.23-4.95 1.08-9.09.36-12.06.45-.18-.36-.36-.63-.72-.99 3.51 0 9.27-.9 11.34-1.53 0 0-5.04-1.08-12.15.9M263.07 57.605c0 .09-.36 1.89-2.43 2.88 4.41-1.98 13.23-3.15 17.91-5.04 6.39-2.7 7.56-6.03 7.56-6.03-5.49-.09-9.99 1.26-13.41 2.25-4.05 1.26-10.17 3.6-12.33 4.5.81.09 1.71.27 2.43.81 3.06-1.17 4.41-1.62 7.11-2.43 2.16-.63 3.78-.72 5.13-.81 0 0-1.89 1.26-5.04 2.25-3.06.99-4.41 1.08-6.93 1.62M263.43 52.744l-.9 1.35c7.02-1.17 14.76-6.57 17.19-9.81 2.43-3.33 1.71-8.28 1.71-8.28-2.34.452-7.38 4.86-8.73 6.12-1.26 1.352-5.22 5.22-7.92 7.38l-.9 2.43c2.34-1.89 5.13-3.96 6.84-5.31 1.35-.99 3.33-2.43 5.31-3.06 0 0-1.8 2.34-3.24 3.512-1.71 1.35-3.51 2.52-4.86 3.33-1.26.63-1.98 1.078-4.5 2.338M261.72 44.285v1.08l-.09.81c1.71-2.25 3.78-4.86 5.76-7.29 1.35-1.62 2.43-2.61 3.69-3.42-1.08 3.06-2.97 5.49-4.32 6.75-1.35 1.17-3.24 3.24-5.13 4.5l-.18.63c-.18.63-.36 1.17-.72 1.71-.45.81-.99 1.53-1.71 2.34.54-.27 1.17-.63 1.8-.9l.63-.18c5.22-2.79 10.35-8.55 12.42-12.51 2.16-3.96 1.26-8.64.72-11.07-2.34 1.98-5.76 5.94-7.29 8.1-1.8 2.61-4.14 6.39-5.58 9.36v.09M196.65 75.785c-2.16 2.16-6.66 6.93-6.3 12.24 0 0 4.23-1.35 5.94-4.41 1.8-3.15 2.88-5.04 3.6-5.76-.54.09-.99.09-1.44 0l-.36-.09c-1.08 1.98-3.15 5.13-5.13 6.3 0 0-.45-2.61 5.13-7.83.09-.18.18-.45.36-.72-.54.18-1.08.27-1.71.27h-.09M254.25 46.805c-.99 2.43-2.79 4.86-7.56 8.1-1.08.72-2.25 2.25-1.35 4.41.9 2.16 2.61 5.13 1.53 6.3-.99 1.26-4.59 1.8-7.47.63 0 0-.63 1.89-1.71 3.06 0 0 .54.99 2.16.54 0 0-.63 1.53.27 3.15 0 0 1.98-.36 2.79-2.16 0 0 .81 1.44 2.34 1.89 0 0 1.35-.63 1.08-3.24 0 0 .9 2.34 3.87 2.7 0 0 1.71-2.16-.54-5.04 0 0 1.62 1.44 4.5.81 0 0 .45-1.53-2.16-3.51 0 0 2.88-.18 4.05-2.61 0 0-1.26-1.53-4.32-1.17 0 0 2.88-.63 3.51-4.05 0 0-2.07-1.26-5.31.81 0 0 .63-1.08 1.98-2.16s2.97-4.05 2.34-8.46M242.46 80.825c.45-.54.81-1.17.99-1.71-.45 4.14-.63 6.93-2.88 9.54 0 0-1.35-1.8-.45-6.12.36-.09.81-.27 1.17-.54 0 0-.45 1.8-.18 3.51 0 0 .81-.54 1.35-4.68M246.33 80.374c.27-.27.81-.99 1.08-1.53.18 2.43.81 8.64-1.35 10.62 0 0-1.44-1.08-1.89-10.17.27.45.81.99 1.08 1.35 0 0-.36 2.88.72 4.95 0 0 .99-.81.36-5.22M251.37 85.145c-1.8-2.07-2.34-8.37-2.34-8.37-.27-.18-.45-.36-.72-.54l-.27-.27c0 .18 0 .45-.09.72.27 3.78.63 7.74 1.8 9.63 1.17 1.98 3.24 2.97 3.24 2.97 2.07-3.6-.36-8.37-2.43-11.7-.27-.09-.45-.27-.72-.36.72 2.52 2.07 5.58 1.53 7.92M256.32 74.164c0 .45-.09.81-.09.99-.09 0-.09.09-.09.18 1.62 1.71 2.88 3.24 5.4 6.75 2.52 3.42 6.39 3.6 6.39 3.6-.36-2.79-1.08-5.04-3.24-7.47-2.07-2.34-4.77-4.5-6.75-6.03-.54.272-1.17.45-2.07.362-.09 0-.09-.09-.18-.09.27.358.45.72.54 1.08 1.44.808 5.85 3.058 7.65 6.66 0 0-2.79-.902-7.56-6.03M259.47 70.744l-.18-.36c-.09-.09-.09-.18-.18-.27 1.62.63 7.38 2.88 9.27 3.78 1.89.99 4.59 3.24 6.03 7.65 0 0-3.87.36-7.11-2.25-3.24-2.7-6.93-6.39-8.55-7.65.18-.09.27-.27.36-.36 0 0 4.32 3.87 9 5.49 0 0-.99-1.8-2.88-3.06-2.16-1.62-3.87-2.07-5.76-2.97M262.71 68.044c0-.09-.09-.27-.18-.448 1.98.448 6.75.99 8.82 1.62 2.16.72 6.03 2.25 8.28 6.57 0 0-3.33 1.08-9.72-1.89-6.3-2.97-8.28-3.602-9.45-3.96.9-.09 1.62-.36 1.98-.63 2.52 1.17 5.85 2.52 9.27 2.61 0 0-1.71-1.172-3.42-1.892-1.89-.81-3.96-1.53-5.58-1.98M262.62 64.895c-.63.36-1.17.45-1.89.54.36.27.81.63 1.17 1.17 2.25.63 6.03 1.35 12.33 1.8 6.3.45 9.63-.72 9.63-.72-2.16-1.35-5.67-2.7-8.01-3.15-2.34-.45-8.55-.45-11.25-.81-.09.09-.36.36-.9.63 2.25.27 7.11.45 9.63 1.71 0 0-4.59.63-10.71-1.17" fill="#2252ab"/><path d="M243.54 72.456c-.27-.182-.45-.36-.54-.54-.36.45-1.44 1.798-1.98 3.148-.45 1.17-.81 2.7-1.08 3.6-.18.9-.81 2.79-1.26 3.42 0 0 1.71.27 3.06-1.26 1.17-1.44 1.62-2.88 1.8-4.41.18-1.17.18-2.79 0-3.958M246.24 72.724c-.36.36-.63.54-.63.54l-.27.18-.27-.09c-.18-.09-.36-.178-.54-.27-.27.72-.36 1.08-.45 1.62-.09.81-.27 2.07.09 3.06.36 1.26 1.08 1.98 1.44 2.43 0 0 1.17-1.26 1.44-2.25.36-1.08.54-2.34.09-3.6-.27-.63-.63-1.26-.9-1.62M250.11 72.814c-1.17-.18-2.07-.54-2.7-1.08-.09.45-.36.99-.18 1.71.18.81.72 1.62 1.44 2.25 1.17.99 2.7 1.8 4.41 1.53 0 0 .45-1.26-2.97-4.41M251.37 70.654c-.09 1.17-.63 1.892-.72 1.892.45.54 1.89 2.968 4.86 2.61 0 0 .81-1.712-1.17-3.06-1.35-.9-1.98-1.082-2.97-1.442M251.1 68.495c.81.27 1.89.36 3.15 0l.36-.09.09-.27c1.53 1.26 3.42 1.44 4.05 2.61 0 0-.81 1.44-2.79 1.17s-3.51-1.17-4.59-2.52c-.09-.27-.18-.63-.27-.9M254.61 66.785c-.27-.45-.45-1.08-1.08-1.8 1.35-.18 2.52-.18 4.05.09 1.89.36 3.78.81 4.77 3.6 0 0-1.26.99-3.42.54-1.8-.36-3.42-1.17-4.32-2.43M255.42 63.724c.45-.45.9-.99 1.17-1.62l.18-.36c1.62-.63 3.24-.99 4.95-.36 1.62.54 2.07 1.26 2.43 1.89 0 0-1.8 1.53-3.87 1.62-2.07 0-4.05-.54-4.86-1.17M254.88 60.394c-.27-.09-.54-.18-.9-.27.72-.63 1.44-1.62 1.71-2.97.81.09 2.52.18 3.33-.18.72-.27 2.25-.27 3.42.45 0 0-.36 2.07-3.06 2.79-2.52.72-3.42.54-4.5.18M255.87 56.346l-.36-.18c0-.09-.63-.45-1.62-.54.81-.63 2.88-2.34 4.32-3.152 1.62-.9 4.23-2.07 5.58-2.25 0 0-1.26 3.33-2.7 4.59-1.53 1.44-2.61 1.892-5.22 1.532M253.17 54.815c.63-.81 1.17-1.98 1.53-3.33.27-1.08.99-3.87 1.44-4.59.36-.63 1.89-3.15 4.77-3.96 0 0 .72 3.24-.72 5.85-1.26 2.16-3.78 4.5-7.02 6.03M237.15 69.845c-.45.36-.72.63-1.35.9 0 0-.9 1.8.18 3.87 1.17 2.16 2.07 4.32 2.52 5.58 0 0 .63-.09 1.26-3.42.54-2.25 1.08-2.88 1.71-3.6-.72.27-1.26.45-1.26.45h-.45l-.18-.36c-.45-.81-.54-1.53-.54-2.16v-.54c-.99 0-1.53-.45-1.8-.72v-.09l-.09.09" fill="#2252ab"/><path d="M255.06 75.785c2.16 2.16 6.66 6.93 6.21 12.24 0 0-4.23-1.35-5.94-4.41-1.71-3.15-2.79-5.04-3.51-5.76.45.09.9.09 1.44 0l.36-.09c1.08 1.98 3.15 5.13 5.04 6.3 0 0 .54-2.61-5.13-7.83 0-.18-.18-.45-.27-.72.45.18 1.08.27 1.71.27h.09M222.57 34.115c0-.36 1.44-.72 3.24-.72 1.8 0 3.33.36 3.33.72s-1.53.72-3.33.72-3.24-.36-3.24-.72M211.41 37.894c0-.27.9-.36 2.07-.36s2.16.09 2.16.36c0 .18-.99.36-2.16.36-1.17 0-2.07-.18-2.07-.36M226.44 35.644c0 .36-.27.63-.63.63s-.63-.27-.63-.63.27-.63.63-.63.63.27.63.63M222.3 33.395c-1.08-2.61-1.8-4.5-1.8-5.13 0-.45.54-.72.9-.81.45-.18.9-.18 1.17 0 .54.45 1.08 3.96 1.26 5.49-.54.09-.9.18-1.53.45M224.28 32.855c.27 0 .63-.09.9-.09-.18-1.35-.63-3.69-.99-4.59-.27-.9-.63-1.62-1.26-1.8 0 0 .54 1.35.72 2.61.27 1.35.54 2.61.63 3.87M220.86 37.534c1.17-.27 2.43-1.62 2.43-1.62-1.98.27-2.43 1.62-2.43 1.62zm1.8-.18c-1.71.99-3.6.9-3.6.9.36-.72.72-1.35 1.8-2.07 1.08-.72 2.79-.9 3.42-.81-.18.452-.81 1.53-1.62 1.98M216.36 40.145v-.09c-1.62.18-3.6.09-3.6.09.09.63.36 1.08.81 1.35.09-1.35 2.79-1.35 2.79-1.35zm-5.49-1.8s2.16.81 4.23.72c2.07-.09 5.94-.18 7.2-.72 0 0-.27.72-1.26 1.17 0 0 .54 0 1.08.45 0 0-.36.72-1.17.99 0 0 1.53 1.71 3.24 1.53 0 0-.81.99-2.52.63s-2.25-1.35-2.61-1.71c0 0 .27.9.18 1.26 0 0-.81 0-1.44-.72 0 0 .45.72.54 1.35 0 0-.45.09-1.35-.45 0 0 .18.45.27.99 0 0-2.07-.63-3.06-1.53 0 0 0 .63.09.99 0 0-3.15-.36-3.42-4.95M210.42 38.705c.09.99.36 1.98.72 2.7 0 0-1.26-.99-1.53-1.71-.36-.81-.45-1.35.81-.99M207.99 42.484c.27 0 .45-.27.45-.54s-.18-.54-.45-.54c-.36 0-.54.27-.54.54s.18.54.54.54zm2.97-.63c.81.36 1.53 1.26 1.53 1.26-1.17.27-1.8.63-1.8.63-2.34-1.62-4.32 0-4.32 0-1.26-.72-1.53-2.52-.9-3.42.63-.99 2.07-.81 2.79-.63.45 1.35 1.98 1.8 2.7 2.16M212.76 43.475s.9 1.08 1.53 1.62c0 0-3.24 0-4.05 2.79 0 0-1.08-1.71-.27-2.88.9-1.17 1.71-1.35 2.79-1.53" fill="#2252ab"/><path d="M216.36 44.105s.99.36 1.35.45v-.9c.27.09.72.18.99.18 0 0 1.08 2.34 1.89 3.24 0 0 0 .54-.45 1.35 0 0-.54-1.44-1.62-2.52-.54-.63-.99-.9-2.16-1.8M213.57 43.655c.36.09 1.98.63 2.79 1.17 1.08.72 1.71 1.53 1.62 2.97 0 0-.81-1.08-1.71-1.62-.72-.45-1.98-1.53-2.7-2.52M213.66 33.125c.27 0 .9.18.9.72 0 .45-.81 1.62-.99 2.16h-.09c-.18-.54-.9-1.71-.9-2.16 0-.54.54-.72.9-.72h.18M212.94 36.994c-.18-.72-.45-2.52-.81-2.88-.45-.36-1.08-.45-1.35-.36-.27 0-.63.27-.45.72.09.36 1.44 2.34 1.62 2.61.27 0 .27 0 .99-.09M214.11 36.994c.18-.72.45-2.52.9-2.88.36-.36.99-.45 1.26-.36.27 0 .63.27.54.72-.18.36-1.53 2.34-1.71 2.61-.27 0-.18 0-.99-.09M215.01 30.785h-1.08v-1.17h-.81v1.17h-1.08v.72h1.08v1.35h.81v-1.35h1.08v-.72M202.41 38.165v-.72c.09-.54.09-.99.09-1.35-.81.27-1.26.45-2.34 2.07 0 0 1.62-.99 2.25 0" fill="#2252ab"/><path d="M203.85 40.775c0-.45.27-1.71.63-2.61.36-1.17.18-2.79-.36-3.78-.45-.99-.72-1.89-.63-2.88 0 0-.99.36-1.53.72-.09 1.17.54 2.25.9 2.97.36.72.27 1.8.18 2.34-.09 1.08.09 2.16.81 3.24M203.94 31.954v-.63s1.53-1.44 2.88-1.71c.81-.18 1.26.18 1.53.36 0 0-.45 0-1.17.54-.63.54-1.53 1.17-2.16 1.35-.63.18-.81.18-1.08.09M208.44 30.065c.63.63 1.08 1.26 1.08 1.71 0 .63-.63 1.98-.99 2.52-.36.45-.81 1.17-.72 1.98 0 .45.27.9.63 1.26 0 0-1.89-.45-2.07-1.62-.27-1.08.18-1.8.54-2.34.27-.54 1.08-1.8 1.35-2.34.18-.45.27-.9.18-1.17M219.42 43.115c.36 1.35.99 2.61 1.62 3.6.54.9.9 2.34.9 2.79 0 0 .81-1.89.36-3.15-.27-1.08-1.17-2.61-2.88-3.24M221.49 43.565s1.35 0 1.89.45c.81.45 1.53 1.62 1.8 2.97 0 0-1.26-.27-1.89-.9-.63-.63-1.44-1.62-1.8-2.52M214.83 45.905c-.18 0-.9.18-1.17.27 0 0 1.08.27 1.62.72.45.45.9.99 1.08 1.98.27 1.44 1.08 2.97 1.35 3.42h.09c-.18-.99.45-2.97.54-3.24 0 0-.81-.63-1.26-1.17-.27-.36-.81-1.08-2.25-1.98M220.59 48.874c.27.72 1.17 2.07.72 3.42-.36 1.35-1.26 1.98-1.8 3.06 0 0-.45-2.07-.36-3.69.09-1.53.72-2.16 1.44-2.79M223.02 48.965s1.26 2.43 1.53 3.42c.18.99 0 1.62-.45 2.25-.45.54-1.17 1.17-1.8 2.43 0 0-.81-1.08-.9-1.62-.09-.54.09-1.89.18-2.43.18-.54.9-2.25 1.44-4.05M223.65 56.885c-.27.27-1.71 2.07-1.89 2.61-.27.54-.63 1.53-.09 2.16.45.72 1.53 1.8 2.43 2.25 0 0-.99-1.53-.9-2.88.09-.81.72-1.53.81-1.98.09-.54.09-1.35-.36-2.16M220.77 55.895c.27.27.63 1.08.72 1.8 0 .72-.09 1.35-.54 2.43-.45 1.35-1.26 2.88-1.62 3.6 0 0-.72-.99-1.08-1.89 0 0 1.08-1.53 1.53-2.61.54-1.17.81-2.34.99-3.33M220.23 55.265s-.45 3.6-2.52 6.21c-1.44 1.71-2.52 2.34-3.33 2.34-1.08 0-2.25-.9-2.61-1.98-.45-1.17-.27-2.79.45-3.42 0 0 .72 2.16 2.16 2.16 1.62.09 3.78-1.71 5.85-5.31" fill="#2252ab"/><path d="M218.52 53.825c.18.63.27 1.62 0 2.52-.18.72-.54 1.62-1.35 2.07-.72.45-2.34.54-2.97-.99 0 0 2.97.18 4.32-3.6M223.47 68.044c.45 1.08 1.89 2.43 1.89 3.24 0 2.16-.99 3.51-1.17 4.23 0 0-1.8-1.35-2.07-2.968-.18-.81 0-3.33 1.35-4.502M221.58 69.576c.18-.54.81-2.07 1.53-2.61 0 0 .99-2.882-2.07-4.592 0 0-1.26 1.71-1.62 3.24-.36 1.62 1.35 2.52 2.16 3.962M217.71 62.465c-.54.63-1.17 1.44-1.8 1.71 0 0-.18 1.26 0 2.07.09 1.26.9 2.52 1.26 3.42 0 0 1.35-1.71 1.53-2.79.09-.99.09-1.89.18-2.34 0 0-.81-1.26-1.17-2.07M214.11 68.495c-.36-.54-1.62-2.7-1.62-4.23 0 0 1.53.81 2.79.18 0 0 .18 2.07-.09 2.7-.18.54-.45.9-1.08 1.35M214.47 68.945c.27-.18.9-.81 1.08-1.08 0 0 1.08 1.89 1.26 2.43 0 0-.54.09-1.08-.27-.54-.45-.72-.54-1.26-1.08M219.15 67.865c-.09.45-1.71 2.7-2.07 2.97 0 0 .18.81.81 2.07.54 1.17 1.44 1.98 1.89 2.338 0 0 .99-1.708 1.26-2.52.36-.808.27-1.708.18-2.07-.36-.718-1.53-1.798-2.07-2.788M221.58 73.805c.36.72 1.44 1.89 1.62 2.88.18.72 0 1.26-.18 1.8s-.81 1.53-1.26 2.25c0 0-1.53-1.35-1.8-2.34-.27-.81-.18-1.89.18-2.52.36-.632 1.08-1.44 1.44-2.07M217.35 73.535c.45.9 1.35 1.708 1.53 2.43.27.9.36 1.44-.09 2.43-.36.9-.81 1.44-.99 1.98 0 0-1.17-1.53-1.35-2.25-.18-.63-.27-1.71 0-2.34.18-.72.63-1.62.9-2.25M223.29 79.564s-2.07 2.43-1.98 3.78c.09 1.71 1.17 2.79 1.35 3.78 0 0 1.08-1.26 1.44-2.07.45-.9.81-1.71.72-2.79-.09-.99-.36-1.71-1.53-2.7M219.51 79.294c.36.45 1.26 2.07.99 3.06-.27.99-1.26 2.34-1.62 2.97 0 0-.81-1.71-.99-2.43-.18-.81 0-2.07 1.62-3.6M240.3 37.894c0-.27-.99-.36-2.16-.36-1.17 0-2.07.09-2.07.36 0 .18.9.36 2.07.36s2.16-.18 2.16-.36M225.9 31.415c.09-.99 1.17-2.97 1.17-3.87 0-.72-.54-1.26-1.26-1.26-.63 0-1.26.54-1.26 1.26 0 .9 1.17 2.88 1.26 3.87h.09M229.32 33.395c1.17-2.61 1.89-4.5 1.8-5.13 0-.45-.45-.72-.9-.81-.45-.18-.81-.18-1.08 0-.63.45-1.08 3.96-1.35 5.49.63.09.9.18 1.53.45M227.34 32.855c-.27 0-.54-.09-.81-.09.18-1.35.63-3.69.9-4.59.27-.9.63-1.62 1.26-1.8 0 0-.45 1.35-.72 2.61-.27 1.35-.45 2.61-.63 3.87M228.42 35.914s1.17 1.35 2.43 1.62c0 0-.54-1.35-2.43-1.62zm-1.08-.54c.72-.09 2.43.09 3.51.81.99.72 1.35 1.35 1.71 2.07 0 0-1.89.09-3.51-.9-.81-.45-1.53-1.528-1.71-1.98M238.14 41.494c.36-.27.63-.72.72-1.35 0 0-1.89.09-3.6-.09v.09s2.7 0 2.88 1.35zm-.72 1.8v-.99c-.99.9-2.97 1.53-2.97 1.53 0-.54.18-.99.18-.99-.81.54-1.35.45-1.35.45.09-.63.54-1.35.54-1.35-.54.72-1.35.72-1.35.72-.09-.36.09-1.26.09-1.26-.27.36-.81 1.35-2.52 1.71-1.8.36-2.61-.63-2.61-.63 1.71.18 3.33-1.53 3.33-1.53-.9-.27-1.17-.99-1.17-.99.54-.45.99-.45.99-.45-.99-.45-1.17-1.17-1.17-1.17 1.26.54 5.13.63 7.2.72 2.07.09 4.14-.72 4.14-.72-.18 4.59-3.33 4.95-3.33 4.95M241.29 38.705c-.09.99-.36 1.98-.72 2.7 0 0 1.26-.99 1.53-1.71.27-.81.36-1.35-.81-.99M244.26 41.945c0-.27-.27-.54-.54-.54s-.54.27-.54.54.27.54.54.54.54-.27.54-.54zm-.81-2.25c.63-.18 2.16-.36 2.79.63.63.9.36 2.7-.9 3.42 0 0-1.98-1.62-4.41 0 0 0-.54-.36-1.8-.63 0 0 .72-.9 1.62-1.26.72-.36 2.25-.81 2.7-2.16M238.86 43.475s-.81 1.08-1.44 1.62c0 0 3.15 0 3.96 2.79 0 0 1.17-1.71.36-2.88-.9-1.17-1.71-1.35-2.88-1.53" fill="#2252ab"/><path d="M235.35 44.105l-1.35.45s-.09-.63 0-.9c-.36.09-.72.18-1.08.18 0 0-.99 2.34-1.8 3.24 0 0-.09.54.36 1.35 0 0 .63-1.44 1.62-2.52.63-.63.99-.9 2.25-1.8M238.05 43.655c-.27.09-1.98.63-2.79 1.17-.99.72-1.71 1.53-1.53 2.97 0 0 .81-1.08 1.71-1.62.72-.45 1.98-1.53 2.61-2.52M238.05 33.125c-.27 0-.9.18-.9.72 0 .45.81 1.62.99 2.16.18-.54.99-1.71.99-2.16 0-.54-.63-.72-.9-.72h-.18M238.77 36.994c.09-.72.36-2.52.81-2.88.45-.36.99-.45 1.35-.36.27 0 .54.27.45.72-.09.36-1.44 2.34-1.62 2.61-.36 0-.27 0-.99-.09M237.51 36.994c-.09-.72-.36-2.52-.81-2.88-.36-.36-.99-.45-1.26-.36-.36 0-.63.27-.54.72.09.36 1.44 2.34 1.62 2.61.36 0 .27 0 .99-.09M236.7 30.785h1.08v-1.17h.81v1.17h.99v.72h-.99v1.35h-.81v-1.35h-1.08v-.72M224.19 23.945h1.08v-1.17h.81v1.17h1.08v.72h-1.08v1.35h-.81v-1.35h-1.08v-.72M249.3 38.165c0-.27 0-.45-.09-.72-.09-.54-.09-.99 0-1.35.72.27 1.26.45 2.25 2.07 0 0-1.62-.99-2.16 0" fill="#2252ab"/><path d="M247.86 40.775c0-.45-.27-1.71-.63-2.61-.45-1.17-.18-2.79.27-3.78.54-.99.81-1.89.72-2.88 0 0 .99.36 1.53.72.09 1.17-.63 2.25-.9 2.97-.36.72-.27 1.8-.18 2.34.09 1.08-.09 2.16-.81 3.24M247.77 31.954c0-.09 0-.45-.09-.63 0 0-1.53-1.44-2.79-1.71-.81-.18-1.35.18-1.53.36 0 0 .45 0 1.08.54.72.54 1.53 1.17 2.25 1.35.63.18.72.18 1.08.09M243.18 30.065c-.54.63-.99 1.26-.99 1.71 0 .63.63 1.98.99 2.52.27.45.81 1.17.72 1.98 0 .45-.36.9-.63 1.26 0 0 1.8-.45 2.07-1.62.18-1.08-.27-1.8-.54-2.34-.27-.54-1.17-1.8-1.35-2.34-.18-.45-.27-.9-.27-1.17M232.29 43.115c-.36 1.35-1.08 2.61-1.71 3.6-.54.9-.9 2.34-.81 2.79 0 0-.9-1.89-.45-3.15.36-1.08 1.26-2.61 2.97-3.24M230.13 43.565s-1.26 0-1.89.45c-.72.45-1.44 1.62-1.8 2.97 0 0 1.35-.27 1.98-.9.63-.63 1.44-1.62 1.71-2.52M236.79 45.905c.27 0 .9.18 1.26.27 0 0-1.08.27-1.62.72-.54.45-.9.99-1.08 1.98-.27 1.44-1.08 2.97-1.35 3.42h-.09c.18-.99-.45-2.97-.63-3.24 0 0 .9-.63 1.26-1.17.27-.36.81-1.08 2.25-1.98M231.12 48.874c-.36.72-1.17 2.07-.81 3.42.45 1.35 1.35 1.98 1.89 3.06 0 0 .36-2.07.27-3.69-.09-1.53-.63-2.16-1.35-2.79M225.9 52.655c0-.72 1.89-2.7 1.8-3.69-.09-1.08-1.53-1.8-1.89-1.89-.36.09-1.71.81-1.8 1.89-.09.99 1.71 2.97 1.8 3.69h.09M228.6 48.965s-1.26 2.43-1.44 3.42c-.27.99-.09 1.62.36 2.25.45.54 1.17 1.17 1.89 2.43 0 0 .81-1.08.9-1.62.09-.54-.09-1.89-.27-2.43-.18-.54-.81-2.25-1.44-4.05M225.81 58.505c.63-.45 1.17-1.17 1.35-1.62.09-.45.18-1.17-.18-1.62-.54-.63-1.08-1.26-1.17-1.8 0 .54-.63 1.17-1.08 1.8-.36.45-.36 1.17-.18 1.62.18.36.72 1.17 1.26 1.62M227.97 56.885c.27.27 1.8 2.07 1.98 2.61.18.54.54 1.53.09 2.16-.45.72-1.53 1.8-2.43 2.25 0 0 .99-1.53.9-2.88-.09-.81-.72-1.53-.81-1.98-.18-.54-.09-1.35.27-2.16M230.94 55.895c-.27.27-.63 1.08-.72 1.8-.09.72.09 1.35.45 2.43.54 1.35 1.35 2.88 1.71 3.6 0 0 .72-.99 1.08-1.89 0 0-1.08-1.53-1.53-2.61-.54-1.17-.81-2.34-.99-3.33M231.39 55.265s.54 3.6 2.61 6.21c1.35 1.71 2.52 2.34 3.24 2.34 1.17 0 2.34-.9 2.7-1.98.36-1.17.27-2.79-.45-3.42 0 0-.72 2.16-2.16 2.16-1.62.09-3.78-1.71-5.94-5.31" fill="#2252ab"/><path d="M233.1 53.825c-.18.63-.18 1.62 0 2.52.18.72.63 1.62 1.44 2.07.72.45 2.34.54 2.97-.99 0 0-3.06.18-4.41-3.6M225.81 64.265c.45-.18.81-.36 1.35-1.08.36-.63.72-1.71.54-2.43-.27-.99-.81-1.35-1.08-1.98-.27.27-.45.45-.81.63-.27-.18-.45-.36-.72-.63-.27.63-.81.99-1.08 1.98-.18.72.18 1.8.54 2.43.54.72.9.9 1.26 1.08M225.81 70.206c.27-.9 2.16-2.7 1.98-3.69-.27-1.44-1.17-1.172-1.98-1.802-.72.63-1.71.36-1.98 1.8-.18.99 1.8 2.79 1.98 3.692M228.15 68.044c-.36 1.08-1.89 2.43-1.89 3.24.09 2.16.99 3.51 1.26 4.23 0 0 1.71-1.35 2.07-2.968.18-.81 0-3.33-1.44-4.502M230.13 69.576c-.18-.54-.81-2.07-1.62-2.61 0 0-.9-2.882 2.16-4.592 0 0 1.26 1.71 1.62 3.24.27 1.62-1.35 2.52-2.16 3.962M234 62.465c.45.63 1.17 1.44 1.71 1.71 0 0 .18 1.26.09 2.07-.18 1.26-.99 2.52-1.26 3.42 0 0-1.35-1.71-1.53-2.79-.18-.99-.09-1.89-.18-2.34 0 0 .72-1.26 1.17-2.07M237.51 68.495c.36-.54 1.62-2.7 1.62-4.23 0 0-1.44.81-2.79.18 0 0-.09 2.07.09 2.7.27.54.45.9 1.08 1.35M237.15 68.945l-1.08-1.08s-.99 1.89-1.17 2.43c0 0 .54.09 1.08-.27.54-.45.63-.54 1.17-1.08M232.56 67.865c.09.45 1.71 2.7 1.98 2.97 0 0-.09.81-.72 2.07-.63 1.17-1.44 1.98-1.89 2.338 0 0-.99-1.708-1.26-2.52-.36-.808-.36-1.708-.18-2.07.36-.718 1.53-1.798 2.07-2.788M225.81 81.274c.18-.63 1.17-1.35 1.53-2.43.27-.63.18-1.44 0-1.89-.36-.63-1.35-2.07-1.53-2.52-.09.45-1.17 1.89-1.44 2.52-.27.45-.27 1.26 0 1.89.36 1.08 1.26 1.8 1.44 2.43M230.04 73.805c-.36.72-1.44 1.89-1.53 2.88-.18.72-.09 1.26.18 1.8.18.54.81 1.53 1.26 2.25 0 0 1.44-1.35 1.8-2.34.27-.81.18-1.89-.18-2.52-.36-.632-1.17-1.44-1.53-2.07M234.27 73.535c-.36.9-1.26 1.708-1.53 2.43-.18.9-.27 1.44.09 2.43.36.9.81 1.44.99 1.98 0 0 1.26-1.53 1.44-2.25.18-.63.27-1.71 0-2.34-.27-.72-.72-1.62-.99-2.25M225.81 93.244c.09-.81 1.71-3.15 1.8-5.67 0-1.26-1.08-3.24-1.8-3.96-.63.72-1.71 2.7-1.71 3.96.09 2.52 1.62 4.86 1.71 5.67M228.33 79.564s2.07 2.43 2.07 3.78c-.09 1.71-1.17 2.79-1.35 3.78 0 0-1.08-1.26-1.53-2.07-.45-.9-.81-1.71-.63-2.79.09-.99.36-1.71 1.44-2.7M232.2 79.294c-.36.45-1.26 2.07-.99 3.06.27.99 1.26 2.34 1.62 2.97 0 0 .81-1.71.99-2.43.18-.81 0-2.07-1.62-3.6" fill="#2252ab"/><path d="M227.25 97.204c.18-1.89 1.26-3.06 1.44-4.05.18-1.17.18-2.25-.72-3.51-.72 2.43-1.44 4.14-2.07 5.4 0 0-.09 0-.09.09v-.09c-.63-1.26-1.35-2.97-2.07-5.4-.9 1.26-.99 2.34-.72 3.51.18.99 1.26 2.16 1.44 4.05.09 1.98-2.16 2.7-2.16 2.7.81.27 1.62.45 2.97-.81.27-.27.45-.54.54-.81.18.27.36.54.63.81 1.35 1.26 2.16 1.08 2.88.81 0 0-2.16-.72-2.07-2.7M220.32 84.244c.27.72.9 2.07.99 2.52.18.81 0 1.71-1.44 2.7 0 0-.9-.63-1.26-1.44-.36-.81-.18-1.35.18-1.8.36-.36 1.17-1.35 1.53-1.98M223.29 87.125c0 .45-.27 2.61-.9 3.69-.9 1.62-2.16 2.7-3.33 2.7-.99 0-1.26-.63-1.8-.81 0 0 .27-1.35 1.44-1.71 1.53-.45 3.69-2.16 4.59-3.87" fill="#2252ab"/><path d="M219.51 90.004c-.27-.18-.45-.36-.72-.72 0 0-1.17.45-2.07 1.08-.9.63-1.8 1.71-2.25 2.25 0 0 1.35.36 2.25-.09 0 0 .27-1.26 1.26-1.89.18-.09.9-.36 1.53-.63M218.34 88.834c-.18-.36-.63-.9-.54-1.89 0 0-1.89 1.26-2.52 1.71-.54.45-1.8 1.71-2.07 2.16 0 0 1.53-.36 2.61-.72 1.26-.45 2.07-.99 2.52-1.26M215.1 90.904c-1.08.45-3.42.81-4.41 1.08-.99.27-1.62.81-2.61 1.8 0 0 1.44.45 2.25.72 0 0 1.17-.9 2.52-1.44.9-.27 1.35-1.17 2.25-2.16M212.94 97.834c.18-.18.45-.54.27-1.08-.18-.45-.99-.9-1.53-1.17-.81-.36-3.15-.99-3.96-1.26 0 0-.36.45-.54.99-.09.18 0 .36.36.36.63.18 2.16-.18 2.61.09.36.27.27.63.27.99 0 0 .72-.45 1.17-.36.63.18.99.45 1.35 1.44M210.87 94.594c.09.09 1.08.36 1.89.9 0 0 .45-.09.63-.45s.99-1.53 1.71-1.71c0 0-.63-.09-.99-.18 0 0-.72.18-1.26.45-.54.18-1.26.54-1.98.99M216.9 93.154c-.18.09-.45.18-.99.18 0 0-2.07 1.44-2.25 2.88-.18 1.17.45 1.8.72 1.89.27.18 1.71.81 2.7-1.17 0 0-1.62.54-2.07-.18-.36-.81.27-1.89.72-2.25.54-.45 1.62-.72 2.25-.63 0 0-.54-.45-1.08-.72" fill="#2252ab"/><path d="M203.4 109.444c.27-1.08.54-2.16.99-3.15.99-1.98 3.24-7.2 8.01-8.1.45-.09-.54-1.26-.99-1.17-.45.09-1.26.63-1.62.81v-1.26c0-.18-.18-.27-.36-.27s-1.35 0-1.71.36c-1.08 1.26-2.97 4.68-3.96 7.2-1.08 2.43-1.71 3.24-2.88 2.88-1.08-.45-1.71-1.62-3.6-1.26-.63.09-1.44.54-1.98 1.17.18.36.36.72 1.26.72s2.61.36 3.51.99c.99.72 1.98.9 3.33 1.08M222.39 93.244c.09.81.45 1.53.9 2.34 0 0-1.44 6.66-6.66 7.2 0 0 .09-1.44 1.62-2.43 1.53-1.08 3.87-2.7 3.69-5.22 0 0-.36.09-1.17.99-.72.99-2.34 3.69-4.86 3.69 0 0 .36-1.26 1.53-1.98 1.08-.72 2.52-1.71 3.15-2.79.63-1.08 1.35-1.62 1.8-1.8M219.87 117.545l3.24 4.41 2.34-4.32-.81-1.53c-.63 1.17-1.35 2.34-1.71 3.06-.27-.45-1.08-1.53-2.16-3.06l-.9 1.44" fill="#2252ab"/><path d="M219.06 113.764c-3.06-4.41-6.93-9.72-7.29-10.26l1.17-.9-3.78-1.44.09 4.14 1.26-.9 7.65 10.71.9-1.35M192.96 89.374c.9-1.08 2.52-.18 4.05 1.35 1.62 1.44 2.7 2.97 1.71 3.96-.81.99-2.52.18-4.14-1.35-1.62-1.44-2.61-2.97-1.62-3.96" fill="#2252ab"/><path d="M195.48 107.464l-.09-.09c-.9-.81-1.35-1.89-1.35-3.15 0-2.43 1.98-4.41 4.32-4.41 2.43 0 4.41 1.98 4.41 4.41 0 .27-.09.81-.09.81.18-.36.9-1.98 1.08-2.34-.63-2.34-2.79-4.05-5.4-4.05-2.16 0-4.05 1.26-4.95 3.15.36-2.25 1.44-4.23 2.16-4.95.99-.9 2.52-1.17 2.52-1.17-.99.18-2.34-.45-3.87-1.89-1.53-1.35-2.25-2.43-2.25-3.42.09 1.35 0 2.16-.36 3.24-.54 1.53-1.98 4.32-1.44 7.47.27 1.8 1.53 4.41 3.6 6.48.45.45.63 1.17.72 1.53 0 0 3.06 0 3.87.09 0 0 .72-.09.72-.54 0-.45-.45-.54-.81-.54-.36 0-1.89 0-2.79-.63M212.76 108.544c-2.07.72-4.05 1.08-5.94 1.44-1.17.18-2.43.18-3.6.18 0 .18 0 .45-.09.63 0 0 .27.27.27.54 1.17.09 2.34 0 3.6-.18 2.07-.36 4.23-.81 6.48-1.62l-.72-.99M216 108.364c2.7-1.44 5.31-3.69 7.65-7.2l.36-.72c-.63.27-1.44.09-1.44.09s-.18.18-.18.27c-2.16 3.24-4.59 5.22-7.11 6.57l.72.99M198.54 109.535c-.45-.09-1.53 0-2.25.09-.81.09-1.62.27-1.71.72-.09.36.18.81.54 1.44.27.36.81.09 1.08 0 .36-.09 2.16-1.08 2.43-1.44.27-.27.45-.72-.09-.81M200.34 110.704c-.18-.09-.63-.27-1.17-.09-.45.18-2.25 1.17-2.34 1.71-.18.45.09.72.36.81.27.09.63.27.9.27.45 0 .81-.27 1.08-.54.18-.27 1.08-1.26 1.17-1.44.09-.27.18-.63 0-.72M200.52 111.784c-.27.36-.9 1.17-.99 1.35-.09.09 0 .36.27.36.18-.09 1.44-.18 2.07-.63.72-.54 1.17-1.44.72-1.8-.45-.27-1.26-.18-2.07.72M200.97 109.174c-.27-.09-1.17-.27-1.35 0-.27.36-.09.81.63 1.17.72.27 2.07.54 2.34.18.27-.36-.09-.99-1.62-1.35M231.3 84.244c-.18.72-.9 2.07-.99 2.52-.18.81.09 1.71 1.44 2.7 0 0 .99-.63 1.35-1.44.27-.81.09-1.35-.27-1.8-.36-.36-1.17-1.35-1.53-1.98M228.33 87.125c0 .45.36 2.61.99 3.69.81 1.62 2.16 2.7 3.24 2.7s1.26-.63 1.8-.81c0 0-.27-1.35-1.44-1.71-1.44-.45-3.69-2.16-4.59-3.87" fill="#2252ab"/><path d="M232.11 90.004c.27-.18.45-.36.81-.72 0 0 1.08.45 1.98 1.08.99.63 1.89 1.71 2.34 2.25 0 0-1.35.36-2.25-.09 0 0-.36-1.26-1.26-1.89-.27-.09-.99-.36-1.62-.63M233.28 88.834c.27-.36.63-.9.54-1.89 0 0 1.98 1.26 2.52 1.71.63.45 1.8 1.71 2.07 2.16 0 0-1.44-.36-2.61-.72-1.17-.45-2.07-.99-2.52-1.26M236.61 90.904c.99.45 3.33.81 4.32 1.08.99.27 1.71.81 2.7 1.8 0 0-1.53.45-2.25.72 0 0-1.26-.9-2.61-1.44-.81-.27-1.26-1.17-2.16-2.16M238.77 97.834c-.27-.18-.54-.54-.27-1.08.09-.45.99-.9 1.53-1.17.81-.36 3.15-.99 3.87-1.26 0 0 .45.45.63.99.09.18-.09.36-.36.36-.63.18-2.25-.18-2.61.09-.45.27-.27.63-.27.99 0 0-.72-.45-1.17-.36-.63.18-.99.45-1.35 1.44M240.84 94.594c-.18.09-1.08.36-1.98.9 0 0-.36-.09-.54-.45-.18-.36-.99-1.53-1.71-1.71 0 0 .54-.09.9-.18 0 0 .81.18 1.35.45.54.18 1.17.54 1.98.99M234.81 93.154c.18.09.36.18.9.18 0 0 2.07 1.44 2.34 2.88.18 1.17-.45 1.8-.72 1.89-.36.18-1.8.81-2.7-1.17 0 0 1.53.54 1.98-.18.45-.81-.27-1.89-.72-2.25-.54-.45-1.53-.72-2.16-.63 0 0 .45-.45 1.08-.72" fill="#2252ab"/><path d="M248.31 109.444c-.27-1.08-.54-2.16-1.08-3.15-.9-1.98-3.15-7.2-7.92-8.1-.45-.09.54-1.26.9-1.17.45.09 1.35.63 1.71.81v-1.26c0-.18.18-.27.36-.27s1.35 0 1.71.36c1.08 1.26 2.88 4.68 3.96 7.2.99 2.43 1.71 3.24 2.79 2.88 1.08-.45 1.8-1.62 3.69-1.26.63.09 1.35.54 1.98 1.17-.18.36-.36.72-1.26.72s-2.61.36-3.6.99c-.9.72-1.89.9-3.24 1.08M229.32 93.244c-.09.81-.54 1.53-.9 2.34 0 0 1.44 6.66 6.66 7.2 0 0-.09-1.44-1.71-2.43-1.53-1.08-3.87-2.7-3.69-5.22 0 0 .45.09 1.17.99.72.99 2.43 3.69 4.95 3.69 0 0-.45-1.26-1.53-1.98s-2.52-1.71-3.15-2.79c-.63-1.08-1.35-1.62-1.8-1.8M225.81 99.635c.36.9 2.34 3.69 3.15 4.5.9.81 2.97 2.88 4.14 3.96 0 0-3.24-.81-5.04-2.43 0 0-1.26.72-2.16.72h-.09c-.9 0-2.25-.72-2.25-.72-1.8 1.62-4.95 2.43-4.95 2.43 1.08-1.08 3.24-3.15 4.05-3.96.9-.81 2.88-3.6 3.15-4.5" fill="#2252ab"/><path d="M225.9 107.104c.63 0 1.35-.27 1.71-.45-.36.81-1.08 1.98-1.8 2.52-.63-.54-1.35-1.71-1.71-2.52.36.18.99.45 1.71.45h.09" fill="#2252ab"/><path d="M228.6 121.954l12.51-17.55 1.35.9v-4.14l-3.78 1.44 1.26.9c-.63.81-9.99 13.95-11.25 15.66l-5.67-10.35-.63 1.08-5.13 7.65-1.26-.81v4.05l3.87-1.53-1.35-.81c.72-1.08 3.51-5.22 4.41-6.66l5.67 10.17" fill="#2252ab"/><path d="M230.85 115.024c-.81-1.26-1.62-2.52-2.07-3.24-.36.63-.99 1.8-1.71 3.06l-.9-1.62 2.43-4.41.72 1.08 2.52 3.78-.99 1.35M233.46 116.195l.9 1.35 1.26-.81.09 4.05-3.87-1.53 1.26-.81c-.09-.27-.36-.54-.54-.9l.9-1.35M258.75 89.374c-.9-1.08-2.52-.18-4.14 1.35-1.62 1.44-2.61 2.97-1.71 3.96.9.99 2.61.18 4.14-1.35 1.62-1.44 2.61-2.97 1.71-3.96" fill="#2252ab"/><path d="M256.14 107.464c.09 0 .09-.09.18-.09.81-.81 1.35-1.89 1.35-3.15 0-2.43-1.98-4.41-4.41-4.41s-4.32 1.98-4.32 4.41v.81c-.18-.36-.9-1.98-.99-2.34.63-2.34 2.79-4.05 5.31-4.05 2.25 0 4.14 1.26 5.04 3.15-.36-2.25-1.44-4.23-2.25-4.95-.9-.9-2.52-1.17-2.52-1.17 1.08.18 2.43-.45 3.96-1.89 1.44-1.35 2.16-2.43 2.25-3.42-.09 1.35-.09 2.16.36 3.24.54 1.53 1.98 4.32 1.44 7.47-.27 1.8-1.53 4.41-3.69 6.48-.45.45-.63 1.17-.63 1.53 0 0-3.15 0-3.87.09 0 0-.72-.09-.72-.54 0-.45.45-.54.81-.54.36 0 1.89 0 2.7-.63M235.62 108.364c-2.61-1.44-5.22-3.69-7.56-7.2l-.45-.72c.63.27 1.53.09 1.53.09s.09.18.18.27c2.16 3.24 4.59 5.22 7.02 6.57l-.72.99M238.95 108.544c1.98.72 3.96 1.08 5.85 1.44 1.26.18 2.52.18 3.6.18 0 .18 0 .45.09.63 0 0-.18.27-.18.54-1.17.09-2.43 0-3.69-.18-2.07-.36-4.23-.81-6.39-1.62l.72-.99M253.17 109.535c.36-.09 1.53 0 2.25.09s1.62.27 1.71.72c.09.36-.18.81-.54 1.44-.27.36-.81.09-1.17 0-.27-.09-2.07-1.08-2.43-1.44-.27-.27-.36-.72.18-.81M251.37 110.704c.18-.09.63-.27 1.08-.09.54.18 2.34 1.17 2.43 1.71.09.45-.18.72-.45.81-.27.09-.54.27-.81.27-.45 0-.9-.27-1.08-.54-.27-.27-1.08-1.26-1.17-1.44-.18-.27-.18-.63 0-.72M251.1 111.784c.27.36.99 1.17 1.08 1.35.09.09 0 .36-.27.36-.18-.09-1.44-.18-2.16-.63-.63-.54-1.17-1.44-.63-1.8.45-.27 1.17-.18 1.98.72M250.74 109.174c.18-.09 1.17-.27 1.35 0 .27.36.09.81-.63 1.17-.72.27-2.07.54-2.34.18-.27-.36.09-.99 1.62-1.35" fill="#2252ab"/></g></svg>