<svg width="51" height="51" viewBox="0 0 51 51" xmlns="http://www.w3.org/2000/svg"><title>Page 1</title><g fill="none" fill-rule="evenodd"><path d="M25.5 48.018c-12.416 0-22.518-10.102-22.518-22.518 0-12.166 9.7-22.103 21.772-22.5v23.544l20.6-11.655c1.698 3.163 2.664 6.775 2.664 10.61 0 12.416-10.102 22.518-22.518 22.518M25.5 0C11.44 0 0 11.44 0 25.5S11.44 51 25.5 51 51 39.56 51 25.5 39.56 0 25.5 0" fill="#FFF"/><path fill="#FFF" d="M14.3 7.35l2.948 5.185 1.297-.737-2.95-5.185M32.157 39.053l2.948 5.185 1.297-.737-2.95-5.184M24.673 40.643l.056 5.965 1.49-.014-.056-5.965M14.256 43.48l1.3.73 2.924-5.198-1.3-.73M6.584 35.267l.743 1.293 5.17-2.972-.742-1.293M46.825 26.23v-1.492l-5.966.005v1.49M10.438 24.617l-5.965.004v1.493l5.966-.005M38.505 33.596l5.2 2.924.73-1.3-5.2-2.923M6.863 15.63l5.2 2.924.73-1.3-5.2-2.924"/><path fill="#3B2113" d="M24.482 4.257l.056 5.965 1.49-.014-.055-5.965M32.222 11.84l1.3.73 2.924-5.2-1.3-.73M43.375 14.29l-5.17 2.973.742 1.293 5.17-2.972"/></g></svg>