<svg width="99" height="119" viewBox="0 0 99 119" xmlns="http://www.w3.org/2000/svg"><title>logo</title><defs><linearGradient x1="92.922%" y1="61.071%" x2="36.444%" y2="36.646%" id="a"><stop stop-color="#FFF" offset="0%"/><stop stop-color="#270A00" offset="100%"/></linearGradient><linearGradient x1="90.067%" y1="55.55%" x2="6.276%" y2="38.02%" id="b"><stop stop-color="#B9B1B1" offset="0%"/><stop stop-color="#6F6F6E" offset="100%"/></linearGradient><linearGradient x1="19.026%" y1="53.896%" x2="87.038%" y2="48.926%" id="c"><stop stop-color="#99877C" offset="0%"/><stop stop-color="#FFF" offset="100%"/></linearGradient><linearGradient x1="7.079%" y1="50.291%" x2="77.994%" y2="54.945%" id="d"><stop stop-color="#301500" offset="0%"/><stop stop-color="#FFF" offset="100%"/></linearGradient><linearGradient x1="130.695%" y1="10.708%" x2="47.164%" y2="57.003%" id="e"><stop stop-color="#99877C" offset="0%"/><stop stop-color="#270A00" offset="100%"/></linearGradient></defs><g fill="none" fill-rule="evenodd"><path stroke="#462600" stroke-width=".567" fill="#FFF" d="M.372 1.185h97.504V118.63H.372z"/><path d="M67.297 49.56s.435.246.125.37c-.31.123-1.49.31-1.737.618-.248.31-.062.68.31.617.434-.06.682-.308.992-.185.31.124.62.556.87.74.31.187-.31.063-.746-.246-.433-.31-.805-.123-.99-.06-.187.06-.435.122 0 .37.433.246.433.617-.56-.063-.992-.678-.744-1.05-.31-1.42.497-.37.87-.432 1.24-.432.497 0 .807-.31.807-.31zM68.228 54.254s-.31-.06-.31-.308-.062-.248-.248 0c-.186.247-.435.308-.435.06 0-.246-.124-.308-.124-.43 0-.125 0 0-.185.246-.186.247-.434.31-.372.062.124-.247 0-.433-.062-.433-.06.063-.123 0-.185.248-.062.186-.124.31-.186.124-.063-.185-.125-.247-.063-.432.062-.186-.124-.31-.248-.062-.063.247-.187.247-.187.432 0 .124-.186.062-.124-.123.06-.186-.125.185-.063-.062s.062-.185-.124-.247c-.124 0-.56.37-.248.68.248.246.868.68 1.426.68.56-.063 1.738-.434 1.738-.434z" fill="#99877C"/><path d="M17.863 12.665c.372 0 .683.432.683.865 0 .432-.062 1.297-.435 1.297-.37 0-1.24-.865-1.24-1.36 0-.43.62-.802.993-.802z" fill="url(#a)" transform="translate(54.582 31.89)"/><path d="M65.87 39.49s.063-.804-.496-1.73c-.558-.928.062-.804.93-1.236.87-.433.745-1.42 1.55-2.1.87-.68 2.73-2.472 4.963-2.225 2.233.246 3.288 1.235 4.094 1.173.807-.062 1.428.185 1.738.68.31.432 2.233.308 3.225.988.993.68 2.42 1.113 3.04 2.843.558 1.73 1.302 2.1 1.86 2.78.496.68 1.427 3.15.744 4.88-.744 1.73-.992 2.224-.62 3.09.372.864.807 1.36 1.49 2.038.68.68-.31.928-1.118.434-.87-.495-.87.432-.745 1.42.186.927-.558 1.483-.62 2.163-.062.68.186 1.915-.248 1.36-.372-.557-.62-1.237-.62-1.73 0-.557-.497-.31-.373.68.124.925.372 1.73.745 1.914.37.186-.187.186-.622-.246-.434-.494.248.556.31.803s-.62-.247-.806-.618c-.186-.372-.124.185-.248.802-.124.618-.248.865 0 .927.248.123.744 1.05-.248.864-.992-.185-1.303-.74-1.985-.062-.68.68-1.487 1.174-1.798.803-.31-.37-1.798-3.83-1.426-4.88.372-.99.93-1.483.992-.927.062.494-.124 1.236 1.613.68 1.738-.556 3.536-3.15 3.784-4.387.25-1.234.062-1.605-.992-1.605s-1.86.865-2.605.123c-.744-.74-.992-.74-1.18-1.297-.185-.555-.247-1.11.126-.68.372.372.992.68.558.125-.433-.556-.744-1.112-.495-.988.248.123.248-.062.062-.433-.187-.37-.25-.432.124-.185.373.246.807.37.56-.063-.31-.432-1.056-.803-1.118-1.297-.062-.495-.124-.556.683-.618.744-.062.93-.494.248-.37-.745.123-.496.802-1.49.308-.99-.494-1.736-.927-.31-.927 1.428 0 1.738-.31.435-.31-1.302 0-1.55.31-2.48-.06-.93-.37-.25-.248.557-.248s-.744-.185-1.426-.803c-.745-.617-.683-.926-.745-1.42-.125-.495.496-1.236.496-.433 0 .802.187 1.296.683 1.173.558-.062 1.116-.186.682-1.174-.496-.99-.992-1.175-.992-1.607 0-.433.124-.803-.248-.495-.372.31-1.427 1.792-3.35 2.225-1.922.37-1.984.37-1.178.123s1.675-1.174.744-.927c-.93.246-1.86.555-2.914.926-.992.37-1.365.433-.868 0 .558-.432.372-.865-.31-.68-.745.186-.56-.308-.993.433-.434.74-1.426 1.11-1.178.802.248-.31.62-1.544 1.612-1.544.992 0 1.302-.495 1.736-.742.434-.247.682-.494-.682.186-1.365.68-1.675.247-2.17 1.05-.497.803-.807.865-.497 1.05.31.247.248.74-.062.618-.31-.124-.62-.37-.497-.74.125-.557.373-.68.373-.68z" fill="#4C2F01"/><path d="M84.974 48.88s.745-.124.497 1.05c-.247 1.112-.62 2.1-.93 2.533-.31.37-1.24 1.174-1.24 1.174s1.24-1.42 1.488-2.163c.248-.74.31-1.297.31-1.73 0-.556-.124-.864-.124-.864zm-2.108-.804v-.247c.062.06.062.06.062.123.062.123 0 .123-.062.123zm0-.556v-.432c.186.123.186.432 0 .432zm0-1.853v-2.78c.124-.556.31-.742.558-.927.31-.247.496.37.248 1.298-.248.926-.248 1.05-.31 2.224-.062 1.173-.124 1.235-.434.37 0 .062 0-.06-.062-.185zm1.798-6.796s0 1.05.62 1.484c.62.432.87.618.87 1.36 0 .74.185.308-.497-.433-.683-.74-1.24-.68-1.117-1.544l.124-.865zm-1.798 4.017v2.78c-.062-.37-.187-1.236-.125-2.04.064-.308.064-.555.126-.74zm0 4.2v.433h-.062c-.25-.06-.373-.185-.373-.185-.247-.185-.37-.31-.495-.494-.124-.185-.31-.68 0-.37.31.31.496.433.806.556.064 0 .126.062.126.062zm0 .742v.246c-.125.062-.435-.06-.87-.06 0 0-.247-.434.125-.434.25.062.62.124.746.247zm-3.784-5.932v-.185c.496-.124.992-.31 1.178-.865.25-1.05.62-2.162 1.18-2.595.557-.432 1.3-.247 1.177 1.174-.124 1.42.187 2.1-.186 2.657-.37.556-.247-.618-.247-1.112 0-.495.248.37-.558.926-.806.495-.744.186-.434-.31.25-.493 0 .25-.867.372-.435 0-.87-.062-1.24-.062zm0-1.173c.372-.186.558-.495.744-1.792.186-1.05-.31-1.545-.744-1.915v3.707zm0-5.622v-.37c.434.184.93.43 1.303.74.806.556.868.494.558.803-.31.37-.248.37-.745-.31-.31-.43-.744-.678-1.116-.863zm2.295 9.7c.434.37.186.555.62.68.434.122.434.493 0 .246-.434-.187-.682-.248-.868-.62-.187-.246.247-.308.247-.308zm-2.295-10.07v.37c-.248-.124-.434-.124-.434-.124s-.434-.804-.372-.68c.062.06.372.247.806.432zm0 2.285v3.707c-.124.06-.248.123-.434.185-.62.31-.807.432-1.303.31v-.372c.62-.062 1.427-.185 1.427-1.174 0-1.112.248-2.038-.186-2.286-.434-.247-.745-1.42-.31-.926.186.185.496.37.806.556zm0 4.695v.185c-.496-.06-.868-.123-.868-.123s.434 0 .868-.062zm-1.737-6.302v-.307l.062-.062-.062.063v-.31c.248.062.372.124.372.124s-.062.062-.31.124c.062.063 0 .186-.062.37zm0-.616v.31c-.186.122-.558.246-1.054.43-1.178.433-1.116 1.05-1.984 1.916-.186.186-.31.31-.496.433V36.4c.31-.618.062-.803.992-1.483.87-.556 1.985-.31 2.543-.123zm0 .37c-.248.247-.93.99-.682 1.607l.434 1.298s-.372-.618-.062-1.483c.186-.494.248-.865.31-1.174v-.246zm0 5.684v.37c-.062 0-.062 0-.124-.06-.557-.186-.123-.31-.123-.31.124.062.186.062.248 0zm-3.473-6.487c.744-.308 1.364-.308 1.364-.308s-.434-.123-1.364-.06v.37zm0-.802v-.37c.806.185 1.488.37 1.488.37s-.62-.062-1.488 0zm0-.37v.37c-.558 0-1.18.062-1.737.124-.248 0-.434.06-.682.123v-.74c.744-.187 1.675-.063 2.42.122zm0 .803v.37c-.31.125-.682.372-.993.62-.683.617-.93.926-1.427 1.11v-1.667c.248-.124.62-.247 1.054-.31.56-.06.993-.122 1.365-.122zm0 2.41v1.483c-.744.494-1.427.68-1.49.494 0 0 .497-.433 1.18-1.483.186-.247.248-.37.31-.494zm-2.42-3.398v.74c-1.054.372-1.55 1.175-2.294 1.917-.868.925-1.18.925-2.17 1.296-.993.37-.435.988-.435.988l-.372-.185c-.37-.186-.247-.804.56-.99.743-.185.99-.803 1.798-1.235.806-.432 1.054-1.792 2.48-2.348.063-.123.25-.123.435-.185zm0 1.483c-.805.37-.805.988-1.612 1.42-.992.557-2.17 1.792-2.17 1.792s1.302-.68 2.728-1.173c.435-.124.807-.248 1.055-.37v-1.67z" fill="#381B00"/><path d="M65.064 44.37c.248-.062.062-.062.062-.31 0-.246-.062-1.05.248-1.606s.062-.556 0-.803c-.062-.184.373-.37.497-.678.125-.31.435-.68.683-.927.248-.31.372-.124.31.124-.062.246.062.555.558.678.497.124.87.247.932.803 0 .557 0 .928.31 1.237.31.31.31.556-.186 1.36-.497.74-1.117 1.42-1.24 1.42-.125 0-.56 0-1.427.124-.87.124-1.242.433-1.242.433s.124-.37.31-.68c.186-.308.496-.74.31-.803-.186-.062-.372.124-.558.124-.186-.124.186-.494.434-.494z" fill="#4C2F01"/><path d="M66.553 45.296s.434-.06.558-.37c.125-.31.063-.433.063-.433.248.185.558.618.062.742-.31.123-.682.06-.682.06z" fill="#FFF"/><path d="M71.763 41.528s.062-.37-.124-.186c-.187.186-.435.433-.125.927.248.493.31.617.992.308.683-.247 1.923-.556 2.853-.185.93.37 1.613 1.544 1.613 1.544s.31-.185.186-.432c-.125-.247-.993-1.298-1.924-1.545-.93-.31-1.674-.247-2.232-.247-.56 0-.125-.185-.497-.124-.372 0-.558.185-.62.123-.124-.062-.124-.185-.124-.185z" fill="#4C2F01"/><path d="M69.344 49.868s.31-.31.124-.74c-.186-.434-.31-.743-.31-.743s.62.556.558.927c0 .37-.372.556-.372.556zM67.173 48.88s.31 0 .62.185.56.803.745.803c.248 0 .248-.185-.062-.68-.372-.494-.745-.926-.93-.926-.25 0-.683.37-.62.494.123.124.247.124.247.124z" fill="#270A00"/><path d="M80.198 53.45c-.248 0-.186.434.125.62.31.184.558.06.62-.125.062-.185-.062-.247-.248-.247-.435 0 0-.31-.497-.247zM81.13 52.833s-.187.248 0 .248c.185 0 .62-.185 1.053-.617.434-.433.434-.927.31-1.36-.124-.432-.434-.432-.62-.308-.186.123.248.247.31.68.062.432 0 .68-.372.988-.31.31-.68.37-.68.37z" fill="#4C2F01"/><path d="M82.43 53.575s.994-.68 1.49-1.668c.496-.927.806-1.668.372-2.1-.372-.433-1.8.123-1.8.432 0 .308.25.246.684 0 .434-.248.682-.31.868-.125.186.185.248.433-.124 1.298-.372.864-1.49 2.162-1.49 2.162zM71.64 46.16c.123.063.433.62 1.24.62.806.06 1.488 0 1.984-.186s.496-.37.496-.37-.372 0-.62-.125c-.372-.186-.558.494-1.612.432-.87 0-.993-.494-1.055-.618-.124-.123-.248-.556-.496-.31-.434.31-.31.495-.186.557.125.063.063-.06.25 0z" fill="#4C2F01"/><path d="M74.616 46.532v-.124c.062-.06.186-.123.31-.123.062 0 .186.062.124.123-.062.062-.186.124-.31.124h-.124zm0-.124c.062-.06.186-.123.248-.123l-.248-.124v.248zm-.372 0c.062.062.062 0 .062.124h-.062v-.124zm.372-.247h-.186c-.062.125-.124.125 0 .187.124 0 .062.06.062.06s.062 0 .062-.06v-.186h.062zm0 .31c-.062 0-.062 0 0 0-.062.124-.248.185-.31.185v.062h.124c.062 0 .062-.123.186-.123v-.124zm-.93.124c0-.062.248-.124.31-.186.062-.06.124-.06.248-.06v.122c-.124.062-.372.124-.558.124zm.558.06c0 .063-.062.063 0 0-.062.063 0 0 0 0z" fill="#7A6161"/><path d="M71.577 45.73l.186-.187c.124-.06 0-.185.186-.185.185 0 .185.185.185.494 0 .31.372.495.558.556.248.062.745 0 .93-.247.187-.308.125-.37.125-.37s.558.186.868.31c.31.123.62.185.87.185.185 0 0-.124 0-.31 0-.184-.374-.123-.994-.432-.558-.308-1.302-.68-1.737-.617-.496 0-.744 0-1.054.31-.247.246-.123.43-.123.493z" stroke="#4C2F01" stroke-width=".216" fill="#4C2F01"/><path d="M69.654 53.822s-.496-.185-.744-.31c-.248-.123 0 0-.372 0-1.18.125-.993-.308-1.427-.246-.495.062-.495.062-.93-.124-.37-.123-.31-.247-.31-.247l.25-.494 2.356.248 1.364.99-.186.184z" fill="#99877C"/><path d="M17.863 13.9c.062.124.062.248.372.31.31.06.683-.186.683-.186l.124.062s-.248.37-.745.31c-.496-.063-.496-.31-.558-.495h.123z" fill="url(#b)" transform="translate(54.582 31.89)"/><path d="M65.312 50.795c.124.494.93.31 1.365.37.496.062.744.062 1.364.618.622.556 1.428.803 1.738 1.236.31.43.186.555-.062.678-.248.124.248-.185-.124-.432s-2.605-.865-2.915-.99c-.31-.122-1.365-.987-1.365-.987-.062-.063-.124-.434 0-.495z" fill="#99877C"/><path d="M64.94 45.482s-1.426 1.853-1.178 3.83.434 4.757.434 5.498c0 .742-.186 2.41.682 2.904.87.433 1.117.556 2.11 1.112.99.556 1.922 1.483 2.232 2.78.372 1.298.868 1.668 1.24 2.657.373.988 1.117 2.78 1.117 3.768 0 .99-.186 2.596-.372 3.337-.186.804-.93 3.77-1.24 5.066-.31 1.298-.807 3.09-.807 3.09l4.218.06s.496-.802.496-1.73c0-.925-.248-1.976.124-2.902.372-.926.682-1.42.682-2.347s.558-.927 1.303-1.668c.745-.74 1.117-1.483.993-3.027-.062-1.545-.558-2.657-.744-1.483-.25 1.174-.497 3.522-1.366 2.47-.868-1.05-.682-1.296-1.178-1.914-.496-.617-2.357-1.976-2.17-4.262.185-2.286.68-2.718 1.86-3.212 1.178-.433 2.17-1.236 2.605-1.668.435-.495.683-.927-.247-.433-.87.494-1.737.99-4.466.927-2.73-.062-4.9-.37-5.707-.927-.806-.556-.868-1.36-.496-1.915.372-.494.56-.556 1.18-.556.62.062.867.185 1.115 0 .247-.185.31-.37.806-.37.434 0 .93-.186.496-.37-.496-.187-.87 0-1.427.06-.558.062-1.8 0-1.985-.494-.248-.494-.124-.68.31-.803.497-.185.807.124.993.185.186.124.682 0 .93-.06.248 0 .372 0 .62.06.187.062 1.55.556 1.613.31.124-.248-.93-.927-1.8-1.175-.867-.308-1.983-.432-2.418-.988-.496-.557-.434-1.05.187-1.298.558-.248 1.054-.248 1.488-.186.434.062.496-.185.062-.432-.434-.186-.93-.556-.992-1.36-.062-.803-.372-.74.31-1.482.62-.74 1.364-1.545 1.737-1.977.372-.433.558-1.112.558-1.112s-.682 1.235-1.18 1.668c-.557.433-.495.433-.867.742-.37.31-1.053.99-1.053 1.36 0 .37 0 .432.062.68 0 .184-.312.802-.808.802-1.488.062-.992-1.174-.62-1.915.31-.62.558-1.298.558-1.298z" fill="#4C2F01"/><path d="M80.074 60.185s1.985 3.275 3.598 5.746c1.613 2.472 4.032 6.426 4.838 8.28.744 1.79 1.116 2.285 1.55 2.038.435-.247-1.178-2.162-1.674-3.274s-2.48-3.954-3.474-5.746c-.682-1.297-3.41-4.88-4.34-6.92-.374-.74-.498-.123-.498-.123z" stroke="#4C2F01" stroke-width=".216" fill="#4C2F01"/><path d="M16.81 13.468c-.56-1.42-.497-2.47 1.736-3.09 0 0-1.055.68-.993 1.05.062.372.62.248.62.248s-1.054.495-1.178 1.05c-.124.557-.186.742-.186.742z" fill="url(#c)" transform="translate(54.582 31.89)"/><path d="M17.18 13.283s.373-.433.993-.495c.62 0 .62-.247.062-.247-.62 0-.372-.184.124-.184s.496-.31-.063-.247c-.558.06.062-.186.373-.248.31-.062.372-.062.372-.062s-.745-.185-1.365.185c-.558.37-.496.495-.496.68.063.37 0 .618 0 .618z" fill="url(#d)" transform="translate(54.582 31.89)"/><path d="M60.97 69.082s.56-2.41-.434-3.893c-.992-1.545-1.674-4.263-1.612-5.993.062-1.668.248-3.77 1.674-6.796 1.427-2.964 2.668-5.868 2.543-7.598-.06-1.73-.62-3.15-.62-3.15s.932.864 1.18 2.41c.248 1.543.124 2.717.124 2.717s-.186-.62-.248-1.237c-.062-.617-.062-.556-.062-.556s-.062.927-.31 1.73c-.25.742-1.613 4.51-2.233 6.116-.62 1.607-1.24 4.82-1.178 6.302.062 1.483.124 3.027.93 5.066.807 2.04 1.117 2.225.87 3.4-.187 1.173-.62 1.482-.62 1.482z" fill="#4C2F01"/><path d="M63.204 57.035s1.054-1.977.744-4.202c-.31-2.285-.993-3.212-.993-3.212s.435 1.236.31 2.35c-.124 1.11-.186 1.543-.806 2.84-.62 1.298-1.18 2.533-1.24 3.893-.125 1.36-.373 3.706.31 5.498.68 1.793.805 2.04.62 2.72-.125.68-.497 1.235-.497 1.235s1.054-.99 1.116-2.04c.06-1.05.185-1.482-.187-1.976-.372-.495-.372-.557-.372-.557s.31.494.373 1.112v.803s-.248-.803-.372-1.235c-.06-.433-.495-1.545-.433-3.275.062-1.79.062-2.533.682-4.015.62-1.483.992-2.348 1.054-3.213.062-.865.062-1.297.062-1.297s.248.494 0 2.224c-.248 1.668-.372 2.348-.372 2.348z" fill="#4C2F01"/><path d="M60.723 67.29s-2.73.124-4.404.988c-1.676.865-1.8 1.113-1.304 3.584.496 2.47 2.17 7.104 4.652 7.413 2.48.31 4.342.124 5.21-.494.87-.678 1.675-1.914 1.985-2.347.31-.432 1.24-.74 2.047-1.235.806-.494 1.985-1.112 2.047-3.46.062-2.347-.993-2.347-1.49-2.41-.433-.123-.93.124-.93.124s-.123-.74-.806-1.112c-.68-.37-1.797-.803-3.348-.926-1.55-.124-1.613-.124-1.613-.124s2.542.124 3.72.68c1.24.494 1.738.926 1.24 1.482-.495.556-1.673 1.792-5.953 1.607-4.28-.125-6.76-.866-6.265-1.793.497-.927 1.613-1.297 3.102-1.606 1.488-.308 2.11-.37 2.11-.37z" fill="#4C2F01"/><path d="M60.723 67.846c-1.24-.062-5.52.865-4.342 1.545.497.31.87.37.87.37s-.745-.617.06-.925c1.552-.557 1.862-.804 3.413-.99z" fill="#B9B1B1"/><path d="M59.048 70.255s-1.675-.247-1.303-.617c.372-.37 2.11-.37 2.978-.37.93 0 3.597.123 3.783.555.186.432.31.494-1.302.556-1.613.06-3.474 0-3.474 0s1.24-.063.806-.248c-.434-.185-.806-.247-1.488-.247-.682 0-.558.123-.434.185.124.062.434.185.434.185z" fill="#4C2F01"/><path d="M62.52 67.846s2.916.124 3.723.556c.868.433 1.24.68.682 1.112-.558.433-.62.247-.558-.123.124-.37.062-.68-1.24-.988-1.24-.247-2.606-.556-2.606-.556z" fill="#B9B1B1"/><path d="M63.204 69.082s2.48 0 2.48.556-.31.556-.806.617c-.496.062 0-.123-.186-.37s-.248-.433.186-.37c.434.06.372 0-.248-.124-.62-.185-1.426-.308-1.426-.308zM58.117 71.738c.25-.31.31-.37-.248-.494-.497-.124-.807-.124-.807.68 0 .74-.062 2.285.868 4.262.932 1.977 1.8 3.275 1.18 1.607-.93-2.657-1.55-5.313-.993-6.055z" fill="#B9B1B1"/><path d="M55.016 70.255s.434.742 1.18.99c.743.246.93.555.123.246-.87-.308-1.056-.493-1.242-.802-.124-.247-.062-.433-.062-.433zM58.49 71.738s1.612.247 4.093 0c2.48-.247 3.97-.618 3.97-.618s-2.295.742-4.652.927c-2.418.124-3.41-.31-3.41-.31zM65.436 44.122s.497-.308 1.117-.185c.62.124.93.31.93.31s-.062-.742-.558-1.05c-.558-.31-.806-.063-1.054.184-.185.248-.434.742-.434.742z" fill="#FFF"/><path d="M75.547 45.11s.186.063.248 0c.062-.06-.062-.308-.124-.432-.06-.06-1.116-1.112-1.86-1.235-.744-.124-1.613 0-2.11.803-.557.865-.247 1.297-.247 1.297s.062-.247.31-.37c.248-.124-.248-.803.62-1.236.93-.432 1.613-.31 2.295.247.62.618.87.927.87.927z" stroke="#4C2F01" stroke-width=".216" fill="#4C2F01"/><path d="M69.034 74.704v-.37c.31-.186.806-.866 1.054-1.607.248-.865.31-1.545-.31-2.1-.248-.248-.558-.248-.744-.124v-.927h.434c.806 0 1.427.68 1.24 2.533-.185 1.852-1.178 2.47-1.55 2.594h-.124zm0-.865c.248-.248.496-.743.62-1.113.186-.495.248-1.36-.31-1.483-.124-.062-.248-.062-.31 0v2.595zm-.868.74c.062-.062.062-.062.062-.124 0-.185-.062-.308-.062-.432v.556zm.868-5.004v.865c-.31.124-.558.37-.558.37s-.435.125-.124-.493c.186-.432.31-.68.682-.74zm0 1.606v2.595c-.124.123-.248.185-.31.185-.31 0-.434-.062-.558-.247v-.927c0-.123.062-.185.062-.247.248-.678.434-1.234.806-1.358zm0 3.15v.372c-.31.06-.434-.31-.124-.37h.124zm-.93-.37s-.063-.247-.373-.185c-.06 0-.123.062-.123.062v.493c.062.062.062.123.124.185.187.186.31.186.436.062v-.556c0-.062-.062-.062-.062-.062zm.062-1.112v.927c-.125-.247-.062-.618 0-.927zm-.56-.247v-1.05c.125.247.125.556 0 1.05zm0 1.236c-.123.122-.06.308 0 .493v-.494zm0-2.287v1.05c-.06.185-.06.31-.123.556-.372 1.296-.868 3.026-1.736 4.2-.87 1.174-1.427 1.73-3.04 1.73-1.612.062-1.612-.494-1.984-.803-.373-.37.62-.556.124-.99-.497-.43-.31-.987-.31-1.605s-.373-.556-.25-.988c.125-.433-.557-.927-.247-1.174.31-.247.186-.494.186-.494s2.357-.248 3.784-.68c1.426-.494 2.42-1.297 3.1-1.112.25-.062.435.062.497.31z" fill="#FFF"/><path d="M20.034 38.427s-1.116-3.027-2.357-4.633c-1.24-1.607-1.86-4.387.434-5.684 2.234-1.297 3.785-2.41 3.66-2.224-.123.31-2.294 1.79-2.914 2.965-.62 1.175-1.365 2.843-.31 4.82 1.054 1.977 1.984 4.51 2.48 2.842.435-1.73.993-2.718 1.055-2.162.125.556.125 1.112-.37 2.656-.497 1.545-1.304 2.842-1.428 2.163l-.248-.743z" fill="url(#e)" transform="translate(54.582 31.89)"/><path d="M58.117 71.738c-.124-.185-.434 0-.62-.123-.124 0-.124-.062-.31-.062v.185c.186.062.248 0 .496.062.124 0 .248.062.434.062 0-.062-.062-.062 0-.124 0 .062 0 0 0 0z" fill="#D0CAC9"/><path d="M64.94 71.8s-.558.37-1.736.68c-1.18.247-2.606.494-2.606.494s0 .247-.186.432c-.124.186-.248.247-.062.494 0 0-.062 1.36.186 1.42.683.187 1.303.31 2.295-.184 0 .494-2.48.74-2.17.99.435.616 1.86.246 2.295 0-.124.678-2.605.246-1.922 1.172.372.556 1.302.124 1.984-.185-.31.432-1.55.74-2.046.803-.496.062-.123.31.31.742.435.432-.31.185-.806-.556-.496-.742-.992-1.113-.93-2.1.062-.928 0-.866-.124-1.793-.124-.927-.186-1.545-.186-1.545s.186.123 1.675 0c1.487-.185 2.852-.494 3.348-.68.558-.185.682-.185.682-.185z" fill="#B9B1B1"/><path d="M66.43 45.11c.31-.06.433-.06.495-.37v.124c-.062.062-.124.185-.248.247-.062 0-.124.063-.248 0zM72.445 45.79c.062.124.062.248.372.31.31.06.683-.186.683-.186l.124.062s-.248.37-.745.31c-.497-.063-.497-.31-.56-.495h.125z" fill="#FFF"/><path d="M72.693 46.1c0-.062 0 0 0 0 0-.062-.062-.062 0 0 .062-.062.062 0 .124 0h-.124zM72.94 46.1h.064s.062 0 .062.06c0 0-.125 0-.125-.06-.06 0 0 0 0 0zM66.305 45.173s.31.062.434-.124c.185-.186.247-.31.185-.495s0 0 0 .123c-.062.124-.124.31-.31.37-.186 0-.31-.122-.31-.06 0 .06 0 .06.062.06s-.062.125-.062.125z" fill="#FFF"/><g fill="#462600"><path d="M73.624 25.465l-.248 1.05c-2.295.556-4.156 1.236-5.644 2.1-1.49.804-3.474 2.348-6.017 4.51-6.7 5.808-12.59 10.256-17.553 13.345 1.427 1.792 2.667 3.707 3.66 5.87.992 2.162 2.79 7.104 5.272 14.95 2.233 6.98 2.79 7.784 4.465 9.7 3.1 3.397 7.318 3.46 10.854 2.965 1.054-.124 3.597-1.483 4.032-1.73.372.68 2.046 3.336.682 4.2-2.17 1.36-1.737 1.05-4.838 1.855-8.56 2.1-13.77-2.1-17.74-8.71-1.302-2.164-1.798-3.523-3.845-9.516-1.923-5.622-3.41-9.514-4.466-11.614-1.055-2.1-2.482-4.325-4.343-6.672l-4.465 16.866c-.93 3.397-1.737 7.104-2.047 8.896-.744 1.36.868.927-.744 1.174 5.397.556.125-.124-2.232-.124-1.18 0-3.598-.432-7.195-.247-1.49.062-2.854.062-4.156-.124v-1.916c1.365.247 2.977.186 4.9-.37 1.675-.495 3.287-2.595 3.908-4.634 1.488-4.51 3.41-11.244 5.83-20.264l5.148-19.275c-5.582.31-9.986 1.607-13.21 3.77-2.482 1.606-3.723 3.46-3.723 5.498 0 .74.372 1.668 1.055 2.78.62.988.992 1.792.992 2.41 0 .74-.248 1.42-.806 1.976s-1.24.865-1.984.865-1.427-.31-1.985-.927V34.98c.993-1.793 2.482-3.46 4.467-5.067 3.907-3.09 10.668-4.633 20.344-4.633h2.73c-1.55 3.954-2.543 6.857-3.04 8.65L38.333 46.53c2.11-.74 4.527-2.1 7.257-3.954 2.79-1.853 5.457-3.892 8-5.993 4.714-3.892 7.38-6.24 8-7.104.187-.246.31-.494.31-.74 0-.186-.31-.433-.867-.62-.558-.184-2.233-.307-4.9-.37l.558-2.347c3.6.31 6.576.494 8.87.494 2.234.062 4.963-.06 8.064-.432zM17.057 54.44v2.1c.186-.68.186-1.42 0-2.1zm0 16.62c.124 0 .248 0 .434-.063.745-.124 1.49-.433 2.172-.99.682-.555 1.24-1.296 1.613-2.037.372-.742.62-1.483.744-2.224.123-.742.185-1.42.06-2.472-.123-1.05-.433-2.533-.743-3.583-.31-1.11-.62-1.79-.93-2.532-.187-.494-.373-.927-.683-1.36-.31-.37-.682-.74-1.054-.74-.31-.062-.56.185-.745.494-.186.31-.248.74-.372 1.36-.124.493-.31 1.05-.558 1.605V71.06h.062zm0 3.21c-20.84-2.1-12.467-28.788-.806-21.498.435.556.683 1.112.807 1.668v2.1c-.682 2.78-3.722 5.005-4.218 5.252-3.35 1.606-2.234 9.514 4.217 10.626v1.853zm0-30.147l-.372-.37c-.682-.866-1.055-1.978-1.055-3.4 0-1.852.435-3.644 1.365-5.374v9.143h.062zm0 14.456l-.186.37c-.37.68-.867 1.297-1.426 1.79-.558.496-1.116.866-1.612 1.3-.497.43-.93.987-1.24 1.48-.31.496-.497.99-.56 1.484-.06.556 0 1.174.187 1.915.185.74.495 1.667.99 2.347.498.68 1.18 1.174 1.924 1.42.62.248 1.303.372 1.923.372V58.58zM70.833 19.658v-.742c.62-.123 1.116-.37 1.55-.68.683-.555.993-1.297.993-2.347 0-1.298-.744-1.916-2.295-1.916h-.247v-.927c.62-.185 1.178-.247 1.55-.247.93 0 1.613.185 2.17.618.56.432.808.988.808 1.73 0 1.297-.682 2.41-2.046 3.336-.744.556-1.55.926-2.48 1.174zm20.654-2.842l.31.74c-2.294 1.546-4.28 2.35-5.83 2.35-.868 0-1.49-.248-1.86-.804-.373-.495-.56-1.174-.56-1.977 0-1.298.435-2.657 1.242-4.078.805-1.42 1.797-2.47 2.976-3.212.93-.556 1.923-.865 3.1-.865.683 0 1.242.123 1.614.37.372.247.558.495.558.865 0 .247-.124.494-.31.618-.186.185-.434.247-.806.247-.31 0-.745-.123-1.303-.37-.56-.31-.993-.433-1.366-.433-.496 0-.93.185-1.426.556-.434.37-.93 1.112-1.365 2.162-.434 1.05-.62 2.163-.62 3.213 0 .803.186 1.42.558 1.853.25.31.622.496 1.118.496 1.054-.062 2.42-.618 3.97-1.73zm-62.645 6.61c.062 0 .186-.062.248-.123.31-.186.496-.37.496-.556 0-.124-.062-.248-.124-.495-.124-.247-.186-.37-.186-.556 0-.185.062-.37.248-.494.186-.123.372-.247.62-.247s.497.062.683.247c.186.185.31.433.31.74 0 .62-.31 1.175-.993 1.608-.372.247-.806.432-1.302.556v-.68zm41.99-10.38v.928c-.495.062-.99.185-1.612.37-.62 2.1-.93 3.275-.93 3.584 0 .37.124.618.31.803.186.186.62.248 1.24.248.373 0 .683 0 .993-.062v.742c-.62.123-1.24.247-1.923.247-1.923 0-2.915-.495-2.915-1.545 0-.31.186-1.112.558-2.41l1.303-4.447c.062-.248.124-.433.124-.556 0-.248-.124-.37-.31-.37-.435 0-1.18.43-2.233 1.358l-.62-.432c2.046-1.607 3.535-2.472 4.59-2.472.558 0 .806.31.806.928 0 .618-.31 1.792-.87 3.645.56-.31 1.056-.432 1.49-.556zm-41.99 6.86V14.22c.62-1.852.868-2.965.868-3.335 0-.247-.124-.37-.31-.37-.124 0-.372.06-.62.184v-.865c.248-.186.496-.31.682-.37.682-.31 1.24-.495 1.613-.495.248 0 .434.06.558.247.124.123.248.37.248.68 0 .555-.37 1.976-1.053 4.262-.62 2.038-.93 3.212-.93 3.46 0 .184.06.308.185.43.124.125.248.187.434.187.56 0 1.303-.37 2.295-1.174.994-.742 1.614-1.668 1.924-2.657l1.55-5.127h2.11l-1.365 4.385c-.807 2.533-1.24 3.954-1.24 4.325 0 .185.06.247.123.37.062.062.186.124.31.124.186 0 .372-.062.558-.186.31-.185.93-.68 1.8-1.42l.496.432c-1.923 1.73-3.35 2.595-4.28 2.595-.31 0-.558-.124-.806-.31-.248-.185-.31-.493-.31-.864 0-.432.124-.988.31-1.73-.868.866-1.923 1.607-3.163 2.225-.683.433-1.427.618-1.985.68zm14.266-5.067l.062-.743c1.178-.432 2.046-.926 2.667-1.36.558-.493.868-.987.868-1.605 0-.74-.372-1.112-1.178-1.112-1.117 0-2.357.556-3.722 1.668l-.62-.433c1.054-.803 1.985-1.42 2.79-1.73.807-.308 1.614-.494 2.42-.494 1.613 0 2.42.557 2.42 1.67 0 .988-.683 1.853-2.048 2.718.372 0 .62-.062.806-.062 1.49 0 2.17.556 2.17 1.668 0 1.05-.68 2.1-2.046 3.213-1.364 1.112-2.853 1.668-4.465 1.668-1.117 0-1.923-.186-2.48-.618-.56-.433-.808-.927-.808-1.483 0-.31.124-.494.31-.74.187-.187.435-.31.745-.31.247 0 .495.062.68.247.187.125.31.31.31.557v.556c0 .31.125.556.435.74.31.187.683.31 1.117.31 1.116 0 1.985-.37 2.73-1.112.743-.74 1.053-1.605 1.053-2.532 0-.865-.434-1.297-1.364-1.297-.682-.06-1.612.186-2.852.62zm20.84 2.47c-1.923 1.73-3.41 2.656-4.342 2.656-.248 0-.558-.123-.744-.308-.248-.186-.372-.495-.372-.865 0-.433.124-.99.31-1.668l.682-2.472h-3.97l-1.364 4.88h-2.17c0-.123.123-.43.31-.987.123-.433.37-1.298.744-2.595l1.302-4.447c.062-.248.124-.433.124-.556 0-.248-.124-.37-.31-.37-.434 0-1.178.43-2.233 1.358l-.62-.432c2.047-1.607 3.597-2.472 4.652-2.472.558 0 .806.31.806.928 0 .618-.31 1.915-.93 3.954h3.97l1.426-4.572h2.108l-1.365 4.387c-.806 2.533-1.178 3.954-1.178 4.324 0 .31.124.496.434.496.37 0 1.115-.556 2.418-1.67l.31.434zm-47.635 2.162h-2.17l1.673-5.56c-.744.247-1.426.556-1.922.99-.56.43-1.24 1.11-2.11 2.1-1.054 1.173-1.86 1.976-2.418 2.347-.558.37-1.117.555-1.675.555-.433 0-.867-.124-1.24-.37-.372-.248-.682-1.05-1.054-2.287L6.14 17c.25.866.435 1.36.62 1.484.125.123.31.185.497.185.558 0 1.365-.557 2.42-1.73 1.24-1.422 2.232-2.287 2.852-2.595.62-.31 1.612-.557 3.038-.742-.434-.31-.806-.865-1.24-1.73-.372-.803-.744-1.36-.993-1.544-.31-.187-.558-.31-.868-.31-.124 0-.434.062-.806.247-.247.124-.495.185-.682.185-.62 0-.992-.247-.992-.74 0-.31.186-.62.558-.866.372-.247.807-.31 1.24-.31.683 0 1.24.187 1.738.62.496.37.992 1.235 1.426 2.532.248.618.62 1.236 1.117 1.792l1.116-4.016h2.172l-1.24 4.263c.496-.31 1.054-.865 1.798-1.607 1.427-1.482 2.48-2.47 3.225-2.903.745-.433 1.49-.618 2.11-.618.806 0 1.24.246 1.24.802s-.372.803-1.117.803h-.806c-.682 0-1.303.186-1.923.494-.56.308-1.24.864-2.048 1.668-.868.803-1.488 1.36-1.86 1.606 1.302.556 2.233 1.05 2.73 1.606.495.556 1.24 1.854 2.232 4.016.744 1.606 1.488 2.656 2.17 3.274.683.618 1.427.865 2.295.865.31 0 .62-.062.93-.123v.74c-.372.063-.744.124-1.18.124-1.115 0-2.107-.247-3.038-.803-.93-.556-1.675-1.297-2.295-2.286-.62-.988-1.302-2.41-2.11-4.2-.433-1.113-.805-1.792-1.115-2.1-.31-.31-.744-.557-1.24-.804l-1.8 5.19zm12.53-9.637c-.62.37-1.366.864-2.234 1.606l.62.433c.743-.556 1.24-.926 1.55-1.112.062 0 .062-.06.124-.06v-.865h-.062zm0 4.324l-.063.308c-.496 1.606-.87 2.657-.993 3.15-.062.372-.124.742-.124 1.05 0 .434.124.742.31.928.186.185.435.31.807.31h.124v-5.747h-.062zM84.354 105.655v-1.482c.062 0 .124-.062.187-.062 1.055-.308 2.606-.987 4.59-2.038l.807.68c-1.985 1.36-3.846 2.286-5.583 2.903zm0-5.992V98.55c.87-.37 1.613-.802 2.233-1.173.87-.618 1.303-1.236 1.303-1.853 0-.433-.186-.804-.558-1.112-.373-.248-.807-.433-1.365-.433-.558 0-1.116.123-1.613.37v-1.174c1.117-.37 2.295-.556 3.536-.556 1.116 0 1.985.185 2.605.556.62.37.868.865.868 1.544 0 .68-.372 1.36-1.054 2.04-.745.68-1.986 1.358-3.847 2.1-.496.247-1.178.494-2.11.803zm0-6.364v1.173c-.062 0-.062.062-.124.062-.744.37-1.364.99-1.86 1.792-.745 1.174-1.24 2.347-1.55 3.583 1.364-.433 2.542-.803 3.534-1.297v1.112c-.992.31-2.295.74-3.845 1.173-.125.556-.187 1.112-.187 1.668 0 .742.186 1.298.558 1.607.373.31.87.432 1.552.432.62 0 1.24-.123 1.922-.31v1.484c-1.612.555-3.1.864-4.403.864-1.116 0-1.984-.247-2.604-.74l-.124-.125v-5.685c.496-1.112 1.302-2.286 2.356-3.398 1.427-1.73 2.978-2.842 4.776-3.398zm-7.132-7.476V83.97h.062c.496.248.744.557.744.927 0 .31-.124.556-.496.804-.124.062-.186.124-.31.124zm0-1.853v1.854c-.31.124-.62.185-1.055.185-.496 0-1.55-.124-3.163-.31-.745-.123-1.427-.185-1.86-.185-1.303 0-2.296.494-3.04 1.545-.496.74-1.055 1.73-1.675 3.027V86.38c.93-.68 2.046-1.297 3.286-1.73 1.923-.74 3.722-1.112 5.335-1.112.93.062 1.675.186 2.172.433zm0 16.002v5.683c-.497-.494-.745-1.297-.745-2.347 0-1.112.248-2.224.745-3.336zm-10.793 6.116v-1.297c.93-.432 1.86-1.297 2.666-2.532 1.365-1.977 1.985-3.83 1.985-5.684 0-1.36-.805-2.1-2.418-2.1-.682 0-1.49.185-2.295.617v-1.358c1.365-.74 2.79-1.112 4.342-1.112 1.363 0 2.356.31 3.038.865.682.556.993 1.297.993 2.1 0 1.236-.496 2.78-1.55 4.45-1.055 1.728-2.48 3.21-4.28 4.57-.806.68-1.675 1.174-2.48 1.483zm0-19.646v3.707c-.25.555-.497 1.234-.807 1.914l-1.303 3.212c.683-.556 1.365-1.05 2.047-1.482v1.36c-.062 0-.124.06-.124.06-.868.495-1.55 1.05-2.047 1.67-.496.678-.992 1.605-1.488 2.84l-1.055 2.78c.434 1.792 1.427 2.657 2.915 2.657.62 0 1.24-.122 1.8-.43v1.296c-.93.37-1.8.556-2.668.556-1.365 0-2.357-.618-2.915-1.853-.87 2.84-2.543 5.188-5.086 6.98v-2.47c.557-1.237 1.3-2.967 2.108-5.19-.683.555-1.365 1.05-2.11 1.42v-1.297c.25-.124.56-.31.807-.494 1.117-.743 2.047-2.102 2.853-4.203l1.117-2.84c-.31-.866-.62-1.484-.993-1.917-.372-.432-.992-.68-1.86-.68-.62 0-1.24.124-1.86.433v-1.36c.93-.37 1.797-.555 2.666-.555.682 0 1.302.124 1.8.37.495.248.867.866 1.177 1.854 1.24-3.645 2.48-6.116 3.66-7.29.434-.31.868-.68 1.364-1.05zm-10.67 6.796v1.36c-.992.43-1.86 1.296-2.728 2.532-1.365 1.977-2.047 3.83-2.047 5.684 0 1.42.806 2.1 2.42 2.1.743 0 1.55-.185 2.356-.618v1.298c-1.364.74-2.852 1.112-4.34 1.112-2.73 0-4.033-.99-4.033-3.027 0-1.175.497-2.596 1.49-4.326.99-1.73 2.418-3.213 4.28-4.572.867-.74 1.735-1.235 2.604-1.544zm0 16.063v2.472c-.06.062-.123.062-.185.123-2.605 1.792-5.46 2.657-8.622 2.657-.93 0-1.675-.124-2.17-.37v-1.916c.31-.124.744-.124 1.24-.124.31 0 .806 0 1.488.062 1.118.124 2.172.124 3.227.124 1.922 0 3.225-.37 3.907-1.112.31-.31.683-.99 1.117-1.915zm-10.978-8.71v-5.87c.56.742.807 1.607.807 2.72 0 1.11-.25 2.16-.808 3.15zm-10.792 7.475h.062c.434 0 .868.123 1.178.37.31.248.435.557.435.927 0 .803-.56 1.483-1.613 2.1l-.062.063v-3.46zM44.782 94.72v5.87c-.62 1.173-1.612 2.224-2.915 3.212-2.48 1.853-5.086 2.842-7.877 2.842v-1.73c.496.31 1.054.433 1.8.433 1.3 0 2.542-.556 3.658-1.668 1.365-1.422 2.11-3.214 2.11-5.376 0-1.607-.31-2.72-.993-3.398-.62-.68-1.427-1.05-2.42-1.05-1.364 0-2.667.68-3.907 1.915-.062.062-.124.124-.186.248v-1.915c1.8-.99 3.845-1.42 6.14-1.42 1.55 0 2.854.43 3.908 1.234.248.247.496.495.682.803zm0 17.546v1.915h-.062c-.496-.246-.744-.555-.744-.987 0-.433.248-.742.806-.927zm-12.777-1.05c.124-.062.248-.062.31-.124.558-.185.807-.432.807-.68 0-.123-.063-.37-.25-.68-.123-.308-.247-.493-.247-.68 0-.246.124-.43.434-.678.248-.186.558-.31.93-.31v3.4c-.558.308-1.24.555-1.985.678v-.926zm1.985-17.052v1.916c-1.117 1.297-1.675 2.965-1.675 5.127 0 1.36.372 2.472 1.18 3.275.185.185.31.31.495.432v1.73c-.744 0-1.365-.062-1.985-.185V95.523c.62-.556 1.303-.99 1.985-1.36zm-20.158 4.45c.806-.372 1.798-1.113 3.04-2.102 2.294-1.853 4.03-3.09 5.27-3.645 1.242-.556 2.42-.803 3.6-.803 1.363 0 2.045.37 2.045 1.05s-.62 1.05-1.86 1.05h-.683c-.372 0-.62-.06-.806-.06-.93 0-1.86.184-2.79.555-.932.37-2.11 1.05-3.6 2.16-1.425 1.05-2.418 1.73-3.1 2.04 2.17.68 3.66 1.36 4.466 2.038.806.68 2.047 2.41 3.66 5.128 1.178 1.977 2.356 3.336 3.41 4.14 1.055.803 2.42 1.173 3.908 1.173.56 0 .993-.063 1.49-.186v.988c-.62.124-1.304.186-1.986.186-2.42 0-4.528-.618-6.512-1.854-1.923-1.235-3.908-3.768-5.893-7.537-.557-1.112-1.115-1.915-1.612-2.41-.496-.493-1.302-.926-2.42-1.358l-2.355 6.918H7.505l1.675-4.325c1.55-4.077 2.357-6.363 2.357-6.92 0-.246-.186-.37-.496-.37-.682 0-1.922.68-3.783 1.977l-.744-.556c1.612-1.174 3.163-2.04 4.714-2.533 1.55-.493 2.667-.802 3.35-.802.62 0 .93.185.93.494 0 .124-.125.495-.31 1.112l-1.365 4.45zm18.173-3.09c-.31.247-.558.494-.806.74-1.924 1.916-2.854 3.955-2.854 6.18 0 1.296.496 2.285 1.55 3.026.62.433 1.303.742 2.11.927V95.524z"/></g></g></svg>