<svg width="24" height="24" viewBox="0 0 24 24" xmlns="http://www.w3.org/2000/svg"><title>Page 1</title><path d="M19.094 1.512c-3.123 0-7.583 2.438-11.364 6.212C2.537 12.908.067 19.2 2.335 21.466l.674.673c.434.433 1.19.433 1.627 0l2.697-2.694c.448-.448.448-1.175 0-1.623l-.675-.673c-.77-.77-2.047-3.068 2.697-7.803 2.3-2.293 4.28-3.457 5.893-3.457.757 0 1.42.264 1.922.765l.674.673c.435.435 1.192.434 1.627 0l2.697-2.693c.217-.217.338-.505.338-.81 0-.308-.12-.596-.338-.813l-.674-.674c-.55-.548-1.358-.826-2.402-.826M3.824 23.988c-.713 0-1.382-.277-1.885-.78l-.676-.673c-2.947-2.942-.577-9.918 5.395-15.88C10.77 2.55 15.535 0 19.093 0c1.44 0 2.64.44 3.473 1.27l.674.673c.505.502.782 1.17.782 1.88 0 .712-.277 1.38-.782 1.88l-2.696 2.694c-1.006 1.006-2.763 1.005-3.77 0l-.673-.673c-.216-.217-.494-.322-.85-.322-.673 0-2.195.392-4.823 3.015-3.085 3.08-3.416 4.945-2.697 5.663l.675.674c1.04 1.038 1.038 2.725 0 3.76L5.707 23.21c-.504.5-1.173.778-1.884.778" fill="#3B2113" fill-rule="evenodd"/></svg>